<?xml version="1.0" encoding="utf-8"?>
<!-- Generator: Adobe Illustrator 27.5.0, SVG Export Plug-In . SVG Version: 6.00 Build 0)  -->
<svg version="1.1" xmlns="http://www.w3.org/2000/svg" xmlns:xlink="http://www.w3.org/1999/xlink" x="0px" y="0px"
	 viewBox="0 0 500 500" style="enable-background:new 0 0 500 500;" xml:space="preserve">
<g id="Floor">
	<ellipse id="Floor_9_" style="fill:#F5F5F5;" cx="250" cy="349.6" rx="231.56" ry="133.25"/>
</g>
<g id="Shadows">
	<ellipse id="Shadow_25_" style="fill:#E0E0E0;" cx="328.134" cy="307.398" rx="58.38" ry="33.706"/>
	<path id="Shadow_24_" style="fill:#E0E0E0;" d="M201.368,447.283l36.943-21.329c1.371-0.791,1.371-2.074,0-2.866l-36.942-21.329
		c-1.371-0.791-3.593-0.791-4.964,0l-36.943,21.329c-1.371,0.791-1.371,2.074,0,2.866l36.942,21.329
		C197.775,448.074,199.997,448.074,201.368,447.283z"/>
	<path id="Shadow_23_" style="fill:#E0E0E0;" d="M302.05,433.801l36.943-21.329c1.371-0.791,1.371-2.074,0-2.866l-36.942-21.329
		c-1.371-0.791-3.593-0.791-4.964,0l-36.943,21.329c-1.371,0.791-1.371,2.074,0,2.866l36.942,21.329
		C298.457,434.593,300.679,434.593,302.05,433.801z"/>
	<path id="Shadow_22_" style="fill:#E0E0E0;" d="M422.773,364.333l36.943-21.329c1.371-0.791,1.371-2.074,0-2.866l-36.942-21.329
		c-1.371-0.791-3.593-0.791-4.964,0l-36.943,21.329c-1.371,0.791-1.371,2.074,0,2.866l36.942,21.329
		C419.181,365.125,421.403,365.125,422.773,364.333z"/>
	<path id="Shadow_4_" style="fill:#E0E0E0;" d="M104.316,418.907l-56.053-32.47c-1.277-0.74-1.276-1.937,0.002-2.675l134.292-77.533
		c1.278-0.738,3.35-0.738,4.628,0l56.151,32.418c1.278,0.738,1.278,1.934,0,2.672L108.942,418.91
		C107.664,419.648,105.593,419.647,104.316,418.907z"/>
</g>
<g id="Barrier_1_">
	<g id="Barrier">
		<g>
			<polygon style="fill:#E0E0E0;" points="66.962,322.217 201.544,244.517 208.076,213.197 73.494,290.897 			"/>
			<polygon style="fill:#F5F5F5;" points="73.496,290.898 208.076,213.198 205.886,211.933 71.306,289.633 			"/>
			<g>
				<polygon style="fill:#27DEBF;" points="110.401,269.591 108.211,268.326 132.729,254.171 134.916,255.436 				"/>
				<polygon style="fill:#27DEBF;" points="159.643,241.161 157.451,239.898 181.967,225.741 184.157,227.006 				"/>
				<polygon style="fill:#27DEBF;" points="73.496,290.898 71.306,289.633 83.653,282.504 85.843,283.768 				"/>
			</g>
			<g style="opacity:0.4;">
				<polygon style="fill:#FFFFFF;" points="110.401,269.591 108.211,268.326 132.729,254.171 134.916,255.436 				"/>
				<polygon style="fill:#FFFFFF;" points="159.643,241.161 157.451,239.898 181.967,225.741 184.157,227.006 				"/>
				<polygon style="fill:#FFFFFF;" points="73.496,290.898 71.306,289.633 83.653,282.504 85.843,283.768 				"/>
			</g>
			<g>
				<polygon style="fill:#27DEBF;" points="73.494,290.897 66.962,322.217 64.772,320.952 71.304,289.633 				"/>
				<polygon style="opacity:0.2;" points="73.494,290.897 66.962,322.217 64.772,320.952 71.304,289.633 				"/>
			</g>
			<g>
				<polygon style="fill:#27DEBF;" points="85.843,283.768 66.962,322.217 73.494,290.897 				"/>
				<polygon style="fill:#27DEBF;" points="91.497,308.03 110.378,269.582 134.916,255.436 116.034,293.882 				"/>
				<polygon style="fill:#27DEBF;" points="140.762,279.61 159.643,241.161 184.181,227.016 165.3,265.462 				"/>
				<polygon style="fill:#27DEBF;" points="201.546,244.516 189.197,251.645 208.076,213.198 				"/>
			</g>
			<g style="opacity:0.35;">
				<polygon points="85.843,283.768 66.962,322.217 73.494,290.897 				"/>
				<polygon points="91.497,308.03 110.378,269.582 134.916,255.436 116.034,293.882 				"/>
				<polygon points="140.762,279.61 159.643,241.161 184.181,227.016 165.3,265.462 				"/>
				<polygon points="201.546,244.516 189.197,251.645 208.076,213.198 				"/>
			</g>
		</g>
		<g>
			<polygon style="fill:#E0E0E0;" points="58.325,363.641 192.908,285.941 199.44,254.622 64.857,332.322 			"/>
			<polygon style="fill:#F5F5F5;" points="64.859,332.322 199.44,254.622 197.25,253.358 62.668,331.058 			"/>
			<g>
				<polygon style="fill:#27DEBF;" points="101.765,311.015 99.575,309.751 124.093,295.595 126.279,296.861 				"/>
				<polygon style="fill:#27DEBF;" points="151.007,282.586 148.814,281.322 173.331,267.166 175.521,268.431 				"/>
				<polygon style="fill:#27DEBF;" points="64.859,332.322 62.668,331.058 75.016,323.928 77.206,325.193 				"/>
			</g>
			<g style="opacity:0.4;">
				<polygon style="fill:#FFFFFF;" points="101.765,311.015 99.575,309.751 124.093,295.595 126.279,296.861 				"/>
				<polygon style="fill:#FFFFFF;" points="151.007,282.586 148.814,281.322 173.331,267.166 175.521,268.431 				"/>
				<polygon style="fill:#FFFFFF;" points="64.859,332.322 62.668,331.058 75.016,323.928 77.206,325.193 				"/>
			</g>
			<g>
				<polygon style="fill:#27DEBF;" points="64.857,332.322 58.325,363.641 56.135,362.377 62.668,331.058 				"/>
				<polygon style="opacity:0.2;" points="64.857,332.322 58.325,363.641 56.135,362.377 62.668,331.058 				"/>
			</g>
			<g>
				<polygon style="fill:#27DEBF;" points="77.206,325.193 58.325,363.641 64.857,332.322 				"/>
				<polygon style="fill:#27DEBF;" points="82.86,349.455 101.741,311.006 126.279,296.861 107.398,335.307 				"/>
				<polygon style="fill:#27DEBF;" points="132.125,321.035 151.007,282.586 175.544,268.441 156.663,306.887 				"/>
				<polygon style="fill:#27DEBF;" points="192.91,285.941 180.561,293.07 199.44,254.622 				"/>
			</g>
			<g style="opacity:0.35;">
				<polygon points="77.206,325.193 58.325,363.641 64.857,332.322 				"/>
				<polygon points="82.86,349.455 101.741,311.006 126.279,296.861 107.398,335.307 				"/>
				<polygon points="132.125,321.035 151.007,282.586 175.544,268.441 156.663,306.887 				"/>
				<polygon points="192.91,285.941 180.561,293.07 199.44,254.622 				"/>
			</g>
		</g>
		<g>
			<g>
				<path style="fill:#455A64;" d="M174.361,320.367l-6.369,3.677c-0.639,0.369-1.675,0.369-2.314,0l-2.027-1.17
					c-0.639-0.369-1.033-1.253-0.881-1.975l21.155-100.15c0.152-0.722,0.794-1.606,1.433-1.975l6.369-3.677
					c0.639-0.369,1.675-0.369,2.314,0l2.027,1.17c0.639,0.369,1.033,1.253,0.881,1.975l-21.155,100.15
					C175.641,319.114,175,319.999,174.361,320.367z"/>
				<path style="fill:#263238;" d="M174.361,320.367l-6.369,3.677c-0.639,0.369-1.033,0.083-0.881-0.639l21.155-100.15
					c0.152-0.722,0.794-1.606,1.433-1.975l6.369-3.677c0.639-0.369,1.033-0.083,0.881,0.639l-21.155,100.15
					C175.641,319.114,175,319.999,174.361,320.367z"/>
			</g>
			<g>
				<polygon style="fill:#37474F;" points="170.962,313.828 172.85,304.892 177.188,302.391 217.392,325.603 219.279,336.719 
					214.941,339.219 				"/>
				<polygon style="fill:#455A64;" points="214.941,339.219 170.962,313.828 172.85,304.892 213.054,328.104 				"/>
			</g>
			<g>
				<path style="fill:#37474F;" d="M222.114,347.938l-6.369,3.677c-0.639,0.369-1.675,0.369-2.314,0l-2.027-1.171
					c-0.639-0.369-1.257-1.258-1.381-1.985l-21.259-125.194c-0.123-0.727,0.294-1.616,0.933-1.985l6.369-3.677
					c0.639-0.369,1.675-0.369,2.314,0l2.027,1.171c0.639,0.369,1.257,1.258,1.381,1.985l21.258,125.194
					C223.171,346.681,222.753,347.569,222.114,347.938z"/>
				<path style="fill:#37474F;" d="M188.765,223.263l0.801,4.734l20.456,120.458c0.128,0.727,0.748,1.625,1.379,1.988l2.031,1.176
					c0.641,0.363,1.678,0.363,2.319,0l6.359-3.677c0.641-0.374,1.058-1.261,0.94-1.988L201.868,221.19l-0.075-0.428
					c-0.128-0.727-0.748-1.624-1.379-1.988l-2.031-1.176c-0.641-0.363-1.678-0.363-2.319,0l-6.37,3.676
					C189.064,221.649,188.636,222.536,188.765,223.263z"/>
				<path style="fill:#455A64;" d="M201.789,220.759l21.258,125.194c0.124,0.727-0.294,1.616-0.933,1.985l-6.369,3.677
					c-0.639,0.369-1.257,0.078-1.38-0.649l-21.258-125.194c-0.123-0.727,0.294-1.616,0.933-1.985l6.369-3.677
					C201.048,219.741,201.666,220.032,201.789,220.759z"/>
			</g>
			<path style="opacity:0.15;" d="M182.897,225.625l3.334,1.924c0.898,0.524,2.202,0.673,3.335,0.449
				c0.47-0.085,0.919-0.235,1.293-0.449l11.008-6.359l-0.075-0.428c-0.128-0.727-0.748-1.624-1.379-1.988l-2.031-1.176
				c-0.641-0.363-1.678-0.363-2.319,0c0.16-0.716,0.641-0.962,0-1.336l-2.02-1.165c-0.641-0.374-1.678-0.374-2.319,0l-6.37,3.677
				c-0.641,0.363-1.282,1.25-1.432,1.977L182.897,225.625z"/>
			<g>
				<path style="fill:#37474F;" d="M179.032,217.82c-0.009-0.49,0.311-0.981,0.958-1.355l12.738-7.354
					c1.278-0.738,3.35-0.738,4.628,0l6.237,3.601c0.632,0.365,0.951,0.841,0.958,1.319c0.008,0.489,0,2.421,0,2.904
					c0,0.483-0.32,0.967-0.959,1.336l-12.737,7.354c-1.278,0.738-3.35,0.738-4.628,0l-6.238-3.601
					c-0.631-0.365-0.951-0.841-0.958-1.319C179.025,220.216,179.041,218.297,179.032,217.82z"/>
				<path style="fill:#263238;" d="M179.032,217.82c-0.009-0.49,0.311-0.981,0.958-1.355l8.551-4.937v14.651
					c-0.837,0-1.675-0.185-2.314-0.553l-6.238-3.601c-0.631-0.365-0.951-0.841-0.958-1.319
					C179.025,220.216,179.041,218.297,179.032,217.82z"/>
				<path style="fill:#455A64;" d="M190.856,222.738l12.737-7.354c1.278-0.738,1.278-1.934,0-2.672l-6.238-3.601
					c-1.278-0.738-3.35-0.738-4.628,0l-12.738,7.354c-1.278,0.738-1.278,1.934,0,2.672l6.238,3.601
					C187.506,223.476,189.578,223.476,190.856,222.738z"/>
			</g>
			<g id="Clock_3_">
				<path id="XMLID_361_" style="fill:#455A64;" d="M198.848,202.324L198.848,202.324l-0.011-0.006c0,0-0.001,0-0.001-0.001
					l-4.302-2.531c-0.001-0.001-0.002-0.001-0.003-0.001l-0.015-0.008l0,0.001c-1.234-0.626-2.883-0.442-4.658,0.701
					c-3.566,2.296-6.29,7.593-6.084,11.829c0.103,2.112,0.914,3.561,2.143,4.2l0,0l0.011,0.006c0.001,0,0.001,0,0.001,0.001
					l4.302,2.531c0,0,0.001,0,0.001,0.001l0.013,0.007l0-0.001c1.234,0.627,2.884,0.444,4.661-0.7
					c3.566-2.296,6.29-7.592,6.084-11.829C200.889,204.412,200.077,202.962,198.848,202.324z"/>
				<path id="XMLID_348_" style="fill:#263238;" d="M190.141,218.997l-4.212-2.483c-0.002,0-0.002,0-0.002,0l-0.012-0.007
					c-1.229-0.64-2.04-2.09-2.142-4.199c-0.092-1.889,0.4-3.988,1.287-5.937l4.303,2.531c-0.889,1.949-1.379,4.048-1.287,5.937
					C188.177,216.906,188.956,218.337,190.141,218.997z"/>
				<path id="XMLID_287_" style="fill:#37474F;" d="M194.907,218.352c3.566-2.296,6.29-7.592,6.084-11.829
					c-0.206-4.237-3.263-5.809-6.829-3.513c-3.566,2.296-6.29,7.592-6.084,11.829C188.283,219.076,191.341,220.649,194.907,218.352z
					"/>
				<path id="XMLID_265_" style="fill:#263238;" d="M191.919,218.057c-2.102,0.102-2.445-2.262-2.494-3.283
					c-0.181-3.737,2.322-8.605,5.468-10.63c0.8-0.516,1.581-0.805,2.258-0.838c2.102-0.102,2.445,2.262,2.494,3.283
					c0.182,3.736-2.322,8.604-5.468,10.63C193.376,217.734,192.595,218.024,191.919,218.057L191.919,218.057z"/>
				<path style="fill:#27DEBF;" d="M194.892,204.144c0.711-0.458,1.401-0.726,2.022-0.806c0.436,0.737,0.552,1.687,0.579,2.242
					c0.182,3.736-2.322,8.604-5.468,10.63c-0.711,0.458-1.401,0.726-2.022,0.806c-0.436-0.737-0.552-1.687-0.579-2.242
					C189.243,211.038,191.747,206.17,194.892,204.144z"/>
			</g>
		</g>
		<g>
			<g>
				<path style="fill:#455A64;" d="M74.49,378.027l-6.369,3.677c-0.639,0.369-1.675,0.369-2.314,0l-2.027-1.17
					c-0.639-0.369-1.033-1.253-0.881-1.975l21.155-100.15c0.152-0.722,0.794-1.606,1.433-1.975l6.369-3.677
					c0.639-0.369,1.675-0.369,2.314,0l2.027,1.17c0.639,0.369,1.033,1.253,0.881,1.975l-21.155,100.15
					C75.771,376.773,75.129,377.658,74.49,378.027z"/>
				<path style="fill:#263238;" d="M74.49,378.027l-6.369,3.677c-0.639,0.369-1.033,0.083-0.881-0.639l21.155-100.15
					c0.152-0.722,0.794-1.606,1.433-1.975l6.369-3.677c0.639-0.369,1.033-0.083,0.881,0.639l-21.155,100.15
					C75.771,376.773,75.129,377.658,74.49,378.027z"/>
			</g>
			<g>
				<polygon style="fill:#37474F;" points="70.979,371.639 72.867,362.703 77.205,360.202 117.409,383.414 119.297,394.53 
					114.959,397.03 				"/>
				<polygon style="fill:#455A64;" points="114.959,397.03 70.979,371.639 72.867,362.703 113.071,385.915 				"/>
			</g>
			<g>
				<path style="fill:#37474F;" d="M122.244,405.598l-6.369,3.677c-0.639,0.369-1.675,0.369-2.314,0l-2.027-1.171
					c-0.639-0.369-1.257-1.258-1.381-1.985L88.894,280.924c-0.124-0.727,0.294-1.616,0.933-1.985l6.369-3.677
					c0.639-0.369,1.675-0.369,2.314,0l2.027,1.171c0.639,0.369,1.257,1.258,1.381,1.985l21.258,125.194
					C123.301,404.34,122.883,405.229,122.244,405.598z"/>
				<path style="fill:#37474F;" d="M88.894,280.922l0.801,4.734l20.456,120.458c0.128,0.727,0.748,1.624,1.379,1.988l2.031,1.176
					c0.641,0.363,1.678,0.363,2.319,0l6.359-3.676c0.641-0.374,1.058-1.261,0.94-1.988l-21.182-124.765l-0.075-0.427
					c-0.128-0.727-0.748-1.624-1.379-1.988l-2.031-1.176c-0.641-0.363-1.678-0.363-2.319,0l-6.37,3.676
					C89.194,279.308,88.766,280.195,88.894,280.922z"/>
				<path style="fill:#455A64;" d="M101.919,278.418l21.258,125.194c0.123,0.727-0.294,1.616-0.933,1.985l-6.369,3.677
					c-0.639,0.369-1.257,0.078-1.381-0.649L93.236,283.431c-0.123-0.727,0.294-1.616,0.933-1.985l6.369-3.677
					C101.177,277.4,101.795,277.691,101.919,278.418z"/>
			</g>
			<path style="opacity:0.15;" d="M83.027,283.284l3.334,1.924c0.898,0.524,2.202,0.673,3.335,0.449
				c0.47-0.085,0.919-0.235,1.293-0.449l11.008-6.359l-0.075-0.427c-0.128-0.727-0.748-1.624-1.379-1.988l-2.031-1.176
				c-0.641-0.363-1.678-0.363-2.319,0c0.16-0.716,0.641-0.962,0-1.336l-2.02-1.165c-0.641-0.374-1.678-0.374-2.319,0l-6.37,3.677
				c-0.641,0.363-1.282,1.25-1.432,1.977L83.027,283.284z"/>
			<g>
				<path style="fill:#37474F;" d="M79.162,275.479c-0.009-0.49,0.311-0.981,0.958-1.355l12.738-7.354
					c1.278-0.738,3.35-0.738,4.628,0l6.237,3.601c0.632,0.365,0.951,0.841,0.958,1.319c0.008,0.489,0,2.421,0,2.904
					c0,0.484-0.319,0.967-0.958,1.336l-12.737,7.354c-1.278,0.738-3.35,0.738-4.628,0l-6.238-3.601
					c-0.631-0.365-0.951-0.841-0.958-1.319C79.154,277.875,79.17,275.956,79.162,275.479z"/>
				<path style="fill:#263238;" d="M79.162,275.479c-0.009-0.49,0.311-0.981,0.958-1.355l8.551-4.937v14.65
					c-0.837,0-1.675-0.184-2.314-0.553l-6.238-3.601c-0.631-0.365-0.951-0.841-0.958-1.319
					C79.154,277.875,79.17,275.956,79.162,275.479z"/>
				<path style="fill:#455A64;" d="M90.985,280.397l12.737-7.354c1.278-0.738,1.278-1.934,0-2.672l-6.238-3.601
					c-1.278-0.738-3.35-0.738-4.628,0l-12.737,7.354c-1.278,0.738-1.278,1.934,0,2.672l6.238,3.601
					C87.635,281.135,89.707,281.135,90.985,280.397z"/>
			</g>
			<g id="Clock_1_">
				<path id="XMLID_532_" style="fill:#455A64;" d="M98.977,259.983L98.977,259.983l-0.011-0.006c0,0-0.001,0-0.001-0.001
					l-4.302-2.531c-0.001,0-0.002-0.001-0.002-0.001l-0.015-0.008l0,0.001c-1.234-0.625-2.883-0.442-4.658,0.701
					c-3.566,2.296-6.29,7.592-6.084,11.829c0.103,2.112,0.914,3.561,2.143,4.2l0,0l0.011,0.006c0.001,0,0.001,0,0.001,0.001
					l4.302,2.531c0,0,0.001,0,0.001,0.001l0.013,0.007l0-0.001c1.235,0.628,2.885,0.444,4.661-0.7
					c3.566-2.297,6.29-7.592,6.084-11.829C101.018,262.071,100.207,260.621,98.977,259.983z"/>
				<path id="XMLID_531_" style="fill:#263238;" d="M90.271,276.656l-4.212-2.483c-0.002,0-0.002,0-0.002,0l-0.012-0.007
					c-1.229-0.64-2.04-2.09-2.142-4.199c-0.092-1.889,0.4-3.988,1.287-5.937l4.303,2.531c-0.889,1.949-1.379,4.048-1.287,5.937
					C88.306,274.565,89.086,275.996,90.271,276.656z"/>
				<path id="XMLID_530_" style="fill:#37474F;" d="M95.036,276.012c3.566-2.297,6.29-7.592,6.084-11.829
					c-0.206-4.236-3.263-5.809-6.83-3.513c-3.566,2.296-6.29,7.592-6.084,11.829C88.413,276.735,91.47,278.308,95.036,276.012z"/>
				<path id="XMLID_362_" style="fill:#263238;" d="M92.048,275.716c-2.102,0.102-2.445-2.262-2.494-3.283
					c-0.182-3.737,2.322-8.605,5.468-10.63c0.8-0.516,1.581-0.806,2.258-0.838c2.102-0.102,2.445,2.262,2.494,3.283
					c0.181,3.737-2.322,8.604-5.468,10.63C93.506,275.393,92.725,275.683,92.048,275.716L92.048,275.716z"/>
				<path style="fill:#27DEBF;" d="M95.021,261.803c0.711-0.458,1.401-0.726,2.022-0.806c0.436,0.737,0.552,1.687,0.579,2.242
					c0.181,3.736-2.323,8.604-5.468,10.63c-0.711,0.458-1.402,0.726-2.022,0.806c-0.436-0.737-0.552-1.687-0.579-2.242
					C89.372,268.697,91.876,263.829,95.021,261.803z"/>
			</g>
		</g>
		<g>
			<g>
				<polygon style="fill:#F5F5F5;" points="84.33,297.152 218.91,219.452 216.72,218.188 82.14,295.888 				"/>
				<polygon style="fill:#E6E6E6;" points="84.33,297.152 90.862,336.014 225.442,258.314 218.91,219.452 				"/>
				<polygon style="fill:#27DEBF;" points="82.14,295.888 88.672,334.75 90.862,336.014 84.33,297.152 				"/>
				<polygon style="opacity:0.2;" points="82.14,295.888 88.672,334.75 90.862,336.014 84.33,297.152 				"/>
			</g>
			<g>
				<polygon style="fill:#27DEBF;" points="139.935,307.682 145.749,261.69 121.235,275.845 115.421,321.835 				"/>
				<polygon style="fill:#27DEBF;" points="189.177,279.25 194.991,233.261 170.477,247.416 164.663,293.404 				"/>
				<polygon style="fill:#27DEBF;" points="96.676,290.024 90.862,336.014 84.33,297.152 				"/>
				<polygon style="fill:#27DEBF;" points="213.096,265.442 218.91,219.452 225.442,258.314 				"/>
			</g>
			<g>
				<polygon style="fill:#27DEBF;" points="121.235,275.845 119.045,274.581 143.563,260.425 145.749,261.69 				"/>
				<polygon style="fill:#27DEBF;" points="170.477,247.416 168.284,246.152 192.801,231.996 194.991,233.261 				"/>
				<polygon style="fill:#27DEBF;" points="84.33,297.152 82.14,295.888 94.487,288.759 96.677,290.023 				"/>
			</g>
			<g style="opacity:0.4;">
				<polygon style="fill:#FFFFFF;" points="121.235,275.845 119.045,274.581 143.563,260.425 145.749,261.69 				"/>
				<polygon style="fill:#FFFFFF;" points="170.477,247.416 168.284,246.152 192.801,231.996 194.991,233.261 				"/>
				<polygon style="fill:#FFFFFF;" points="84.33,297.152 82.14,295.888 94.487,288.759 96.677,290.023 				"/>
			</g>
		</g>
		<g>
			<g>
				<polygon style="fill:#F5F5F5;" points="92.967,348.551 227.547,270.851 225.357,269.587 90.777,347.287 				"/>
				<polygon style="fill:#E6E6E6;" points="92.967,348.551 99.499,387.413 234.079,309.713 227.547,270.851 				"/>
				<polygon style="fill:#27DEBF;" points="90.777,347.287 97.309,386.148 99.499,387.413 92.967,348.551 				"/>
				<polygon style="opacity:0.2;" points="90.777,347.287 97.309,386.148 99.499,387.413 92.967,348.551 				"/>
			</g>
			<g>
				<polygon style="fill:#27DEBF;" points="148.572,359.081 154.386,313.089 129.872,327.244 124.058,373.234 				"/>
				<polygon style="fill:#27DEBF;" points="197.814,330.649 203.628,284.659 179.114,298.815 173.3,344.802 				"/>
				<polygon style="fill:#27DEBF;" points="105.313,341.423 99.499,387.413 92.967,348.551 				"/>
				<polygon style="fill:#27DEBF;" points="221.733,316.841 227.547,270.851 234.079,309.713 				"/>
			</g>
			<g>
				<polygon style="fill:#27DEBF;" points="129.872,327.244 127.682,325.98 152.2,311.824 154.386,313.089 				"/>
				<polygon style="fill:#27DEBF;" points="179.114,298.815 176.921,297.551 201.438,283.395 203.628,284.659 				"/>
				<polygon style="fill:#27DEBF;" points="92.967,348.551 90.777,347.287 103.124,340.157 105.314,341.422 				"/>
			</g>
			<g style="opacity:0.4;">
				<polygon style="fill:#FFFFFF;" points="129.872,327.244 127.682,325.98 152.2,311.824 154.386,313.089 				"/>
				<polygon style="fill:#FFFFFF;" points="179.114,298.815 176.921,297.551 201.438,283.395 203.628,284.659 				"/>
				<polygon style="fill:#FFFFFF;" points="92.967,348.551 90.777,347.287 103.124,340.157 105.314,341.422 				"/>
			</g>
		</g>
	</g>
</g>
<g id="Cones">
	<g id="Cone_2_">
		<g>
			<path style="fill:#27DEBF;" d="M383.537,336.197l34.446-19.889c0.641-0.374,1.475-0.556,2.308-0.556
				c0.834,0,1.678,0.182,2.319,0.556l34.435,19.889c0.641,0.374,0.951,0.855,0.951,1.336v2.512c0,0.481-0.31,0.962-0.951,1.336
				l-34.435,19.879c-0.641,0.374-1.486,0.556-2.319,0.556c-0.834,0-1.667-0.182-2.308-0.556l-34.446-19.879
				c-0.641-0.374-0.951-0.855-0.951-1.336v-2.512C382.586,337.052,382.895,336.571,383.537,336.197z"/>
			<path style="opacity:0.1;" d="M382.586,337.533v2.512c0,0.481,0.31,0.962,0.951,1.336l34.446,19.879
				c0.641,0.374,1.475,0.556,2.308,0.556v-46.063c-0.834,0-1.667,0.182-2.308,0.556l-34.446,19.889
				C382.895,336.571,382.586,337.052,382.586,337.533z"/>
			<path style="opacity:0.3;" d="M420.291,315.752v46.063c0.834,0,1.678-0.182,2.319-0.556l34.435-19.879
				c0.641-0.374,0.951-0.855,0.951-1.336v-2.512c0-0.481-0.31-0.962-0.951-1.336l-34.435-19.889
				C421.969,315.934,421.124,315.752,420.291,315.752z"/>
			<path style="fill:#27DEBF;" d="M422.605,358.756l34.444-19.886c1.278-0.738,1.278-1.934,0-2.672l-34.444-19.886
				c-1.278-0.738-3.35-0.738-4.628,0l-34.444,19.886c-1.278,0.738-1.278,1.934,0,2.672l34.444,19.886
				C419.255,359.494,421.327,359.494,422.605,358.756z"/>
			<path style="opacity:0.5;fill:#FFFFFF;" d="M422.605,358.756l34.444-19.886c1.278-0.738,1.278-1.934,0-2.672l-34.444-19.886
				c-1.278-0.738-3.35-0.738-4.628,0l-34.444,19.886c-1.278,0.738-1.278,1.934,0,2.672l34.444,19.886
				C419.255,359.494,421.327,359.494,422.605,358.756z"/>
			<path style="opacity:0.05;" d="M420.29,315.759c0.838,0,1.676,0.184,2.315,0.553l34.443,19.886c1.278,0.738,1.278,1.934,0,2.672
				l-34.444,19.886c-0.639,0.369-1.477,0.553-2.315,0.553V315.759z"/>
		</g>
		<path style="fill:#27DEBF;" d="M399.03,335.028h-0.008l15.241-45.78c0.003-0.008,0.006-0.017,0.008-0.025l0.014-0.043h0.008
			c0.237-0.65,0.784-1.27,1.657-1.774c2.398-1.384,6.285-1.384,8.683,0c0.874,0.504,1.421,1.124,1.657,1.774h0.009l0.017,0.05
			c0.001,0.004,0.003,0.008,0.004,0.012l15.241,45.787h-0.007c1.401,3.982-0.564,8.28-5.913,11.368
			c-8.477,4.894-22.221,4.894-30.698,0C399.594,343.308,397.629,339.009,399.03,335.028z"/>
		<g>
			<path style="fill:#FAFAFA;" d="M409.892,302.376l0.016-0.049l2.166-6.508c-0.36,1.107-0.04,2.27,0.947,3.275
				c0.363,0.37,0.81,0.72,1.356,1.035c3.266,1.886,8.562,1.886,11.828,0c0.546-0.315,0.993-0.665,1.356-1.035
				c0.991-1.008,1.31-2.176,0.944-3.286l2.172,6.526l0.012,0.035c0.359,1.089,0.194,2.222-0.479,3.272
				c-0.514,0.802-1.318,1.555-2.433,2.199c-0.789,0.455-1.69,0.796-2.63,1.078c-3.048,0.913-6.666,0.913-9.714,0
				c-0.94-0.282-1.841-0.622-2.63-1.078c-1.115-0.644-1.919-1.398-2.433-2.199C409.701,304.594,409.535,303.463,409.892,302.376z"/>
			<path style="fill:#FAFAFA;" d="M401.16,328.604l0.014-0.042l2.169-6.516c-0.358,1.08-0.387,2.187-0.122,3.274
				c0.277,1.138,0.879,2.253,1.838,3.291c0.783,0.849,1.79,1.647,3.029,2.362c6.74,3.892,17.668,3.892,24.408,0
				c1.239-0.715,2.245-1.513,3.029-2.362c0.958-1.038,1.561-2.153,1.838-3.291c0.264-1.085,0.236-2.189-0.12-3.267l2.163,6.498
				l0.021,0.064c0.357,1.08,0.433,2.185,0.238,3.276c-0.443,2.48-2.305,4.892-5.597,6.793c-7.609,4.393-19.944,4.393-27.553,0
				c-3.292-1.901-5.153-4.312-5.596-6.793C400.723,330.797,400.8,329.689,401.16,328.604z"/>
			<path style="fill:#FAFAFA;" d="M405.526,315.49l0.015-0.045l2.168-6.512c-0.357,1.084-0.281,2.203,0.206,3.273
				c0.546,1.199,1.615,2.335,3.22,3.283c0.034,0.02,0.063,0.042,0.098,0.062c5.003,2.889,13.115,2.889,18.118,0
				c0.035-0.02,0.064-0.042,0.098-0.063c1.606-0.948,2.675-2.083,3.22-3.283c0.487-1.071,0.563-2.191,0.205-3.275l2.167,6.511
				l0.017,0.05c0.358,1.086,0.357,2.203-0.006,3.289c-0.386,1.151-1.189,2.262-2.386,3.264c-0.511,0.427-1.084,0.837-1.743,1.217
				c-1.682,0.971-3.667,1.654-5.775,2.069c-3.146,0.619-6.567,0.619-9.713,0c-2.109-0.415-4.094-1.098-5.775-2.069
				c-0.659-0.38-1.232-0.79-1.743-1.217c-1.197-1.002-2-2.113-2.386-3.264C405.167,317.695,405.167,316.577,405.526,315.49z"/>
		</g>
		<path style="opacity:0.1;" d="M420.292,286.367c1.571,0,3.143,0.346,4.341,1.038c0.874,0.504,1.421,1.124,1.657,1.774h0.009
			l0.017,0.05c0.001,0.004,0.003,0.008,0.004,0.012l15.241,45.787h-0.007c1.401,3.982-0.564,8.28-5.913,11.368
			c-4.238,2.447-9.794,3.671-15.349,3.671c0.043-0.007,0.087-0.013,0.13-0.02c6.876-1.102,11.51-7.664,10.55-14.562l-6.339-45.573
			L420.292,286.367z"/>
		<path style="fill:#27DEBF;" d="M424.633,292.418c2.398-1.384,2.398-3.629,0-5.013c-2.398-1.384-6.285-1.384-8.683,0
			c-2.398,1.384-2.398,3.629,0,5.013C418.348,293.802,422.235,293.802,424.633,292.418z"/>
		<path style="opacity:0.5;fill:#FFFFFF;" d="M424.633,292.418c2.398-1.384,2.398-3.629,0-5.013c-2.398-1.384-6.285-1.384-8.683,0
			c-2.398,1.384-2.398,3.629,0,5.013C418.348,293.802,422.235,293.802,424.633,292.418z"/>
	</g>
	<g id="Cone_1_">
		<g>
			<path style="fill:#27DEBF;" d="M162.132,418.909l34.446-19.889c0.641-0.374,1.475-0.556,2.308-0.556
				c0.834,0,1.678,0.182,2.319,0.556l34.435,19.889c0.641,0.374,0.951,0.855,0.951,1.336v2.512c0,0.481-0.31,0.962-0.951,1.336
				l-34.435,19.879c-0.641,0.374-1.486,0.556-2.319,0.556c-0.834,0-1.667-0.182-2.308-0.556l-34.446-19.879
				c-0.641-0.374-0.951-0.855-0.951-1.336v-2.512C161.18,419.764,161.49,419.283,162.132,418.909z"/>
			<path style="opacity:0.1;" d="M161.18,420.245v2.512c0,0.481,0.31,0.962,0.951,1.336l34.446,19.879
				c0.641,0.374,1.475,0.556,2.308,0.556v-46.063c-0.834,0-1.667,0.182-2.308,0.556l-34.446,19.889
				C161.49,419.283,161.18,419.764,161.18,420.245z"/>
			<path style="opacity:0.3;" d="M198.886,398.464v46.063c0.834,0,1.678-0.182,2.319-0.556l34.435-19.879
				c0.641-0.374,0.951-0.855,0.951-1.336v-2.512c0-0.481-0.31-0.962-0.951-1.336l-34.435-19.889
				C200.564,398.646,199.719,398.464,198.886,398.464z"/>
			<path style="fill:#27DEBF;" d="M201.2,441.468l34.444-19.886c1.278-0.738,1.278-1.934,0-2.672L201.2,399.024
				c-1.278-0.738-3.35-0.738-4.628,0l-34.444,19.886c-1.278,0.738-1.278,1.934,0,2.672l34.444,19.886
				C197.85,442.206,199.922,442.206,201.2,441.468z"/>
			<path style="opacity:0.5;fill:#FFFFFF;" d="M201.2,441.468l34.444-19.886c1.278-0.738,1.278-1.934,0-2.672L201.2,399.024
				c-1.278-0.738-3.35-0.738-4.628,0l-34.444,19.886c-1.278,0.738-1.278,1.934,0,2.672l34.444,19.886
				C197.85,442.206,199.922,442.206,201.2,441.468z"/>
			<path style="opacity:0.05;" d="M198.885,398.471c0.838,0,1.676,0.184,2.315,0.553l34.444,19.886c1.278,0.738,1.278,1.934,0,2.672
				L201.2,441.468c-0.639,0.369-1.477,0.553-2.315,0.553V398.471z"/>
		</g>
		<path style="fill:#27DEBF;" d="M177.625,417.74h-0.008l15.241-45.78c0.003-0.008,0.006-0.017,0.008-0.025l0.014-0.043h0.008
			c0.237-0.65,0.784-1.27,1.657-1.774c2.398-1.384,6.285-1.384,8.682,0c0.874,0.504,1.421,1.124,1.657,1.774h0.009l0.017,0.05
			c0.001,0.004,0.003,0.008,0.004,0.012l15.241,45.787h-0.007c1.401,3.982-0.564,8.28-5.913,11.368
			c-8.477,4.894-22.221,4.894-30.698,0C178.188,426.02,176.223,421.722,177.625,417.74z"/>
		<g>
			<path style="fill:#FAFAFA;" d="M188.486,385.088l0.016-0.049l2.167-6.508c-0.36,1.107-0.04,2.27,0.947,3.275
				c0.363,0.37,0.81,0.72,1.356,1.035c3.266,1.886,8.561,1.886,11.828,0c0.546-0.315,0.993-0.665,1.356-1.035
				c0.99-1.008,1.31-2.176,0.944-3.286l2.172,6.526l0.012,0.035c0.359,1.089,0.194,2.222-0.479,3.272
				c-0.514,0.802-1.318,1.555-2.433,2.199c-0.789,0.455-1.689,0.796-2.63,1.078c-3.048,0.913-6.666,0.913-9.714,0
				c-0.94-0.282-1.841-0.622-2.63-1.078c-1.115-0.644-1.919-1.398-2.433-2.199C188.296,387.306,188.13,386.175,188.486,385.088z"/>
			<path style="fill:#FAFAFA;" d="M179.755,411.316l0.014-0.042l2.169-6.516c-0.358,1.08-0.387,2.187-0.122,3.274
				c0.277,1.138,0.879,2.253,1.838,3.291c0.783,0.848,1.79,1.646,3.029,2.362c6.74,3.891,17.668,3.891,24.408,0
				c1.239-0.715,2.245-1.513,3.029-2.362c0.958-1.038,1.561-2.154,1.838-3.291c0.264-1.085,0.236-2.189-0.12-3.267l2.163,6.498
				l0.021,0.064c0.356,1.08,0.433,2.185,0.238,3.276c-0.443,2.48-2.305,4.892-5.597,6.793c-7.609,4.393-19.944,4.393-27.553,0
				c-3.292-1.901-5.153-4.312-5.596-6.793C179.318,413.509,179.395,412.401,179.755,411.316z"/>
			<path style="fill:#FAFAFA;" d="M184.121,398.202l0.015-0.045l2.168-6.512c-0.357,1.084-0.281,2.203,0.206,3.273
				c0.546,1.199,1.615,2.335,3.22,3.283c0.034,0.02,0.063,0.042,0.098,0.062c5.003,2.889,13.115,2.889,18.117,0
				c0.035-0.02,0.064-0.042,0.098-0.063c1.606-0.948,2.675-2.083,3.22-3.283c0.487-1.071,0.563-2.191,0.205-3.275l2.167,6.511
				l0.017,0.05c0.358,1.086,0.357,2.204-0.006,3.289c-0.386,1.151-1.189,2.262-2.386,3.264c-0.511,0.427-1.084,0.837-1.743,1.217
				c-1.682,0.971-3.667,1.654-5.775,2.069c-3.146,0.619-6.567,0.619-9.713,0c-2.109-0.415-4.094-1.098-5.775-2.069
				c-0.659-0.38-1.232-0.79-1.743-1.217c-1.197-1.001-2-2.113-2.386-3.264C183.762,400.407,183.762,399.289,184.121,398.202z"/>
		</g>
		<path style="opacity:0.1;" d="M198.886,369.079c1.571,0,3.143,0.346,4.341,1.038c0.874,0.504,1.421,1.124,1.657,1.774h0.009
			l0.017,0.05c0.001,0.004,0.003,0.008,0.004,0.012l15.241,45.787h-0.007c1.401,3.982-0.564,8.28-5.913,11.368
			c-4.238,2.447-9.794,3.671-15.349,3.671c0.043-0.007,0.087-0.013,0.13-0.02c6.876-1.102,11.51-7.664,10.55-14.562l-6.339-45.573
			L198.886,369.079z"/>
		<path style="fill:#27DEBF;" d="M203.228,375.13c2.398-1.384,2.398-3.629,0-5.013c-2.398-1.384-6.285-1.384-8.683,0
			c-2.398,1.384-2.398,3.629,0,5.013C196.943,376.514,200.83,376.514,203.228,375.13z"/>
		<path style="opacity:0.5;fill:#FFFFFF;" d="M203.228,375.13c2.398-1.384,2.398-3.629,0-5.013c-2.398-1.384-6.285-1.384-8.683,0
			c-2.398,1.384-2.398,3.629,0,5.013C196.943,376.514,200.83,376.514,203.228,375.13z"/>
	</g>
	<g id="Cone">
		<g>
			<path style="fill:#27DEBF;" d="M262.813,405.36l34.446-19.889c0.641-0.374,1.475-0.556,2.308-0.556
				c0.834,0,1.678,0.182,2.319,0.556l34.435,19.889c0.641,0.374,0.951,0.855,0.951,1.336v2.512c0,0.481-0.31,0.962-0.951,1.336
				l-34.435,19.879c-0.641,0.374-1.485,0.556-2.319,0.556c-0.834,0-1.667-0.182-2.308-0.556l-34.446-19.879
				c-0.641-0.374-0.951-0.855-0.951-1.336v-2.512C261.861,406.215,262.171,405.734,262.813,405.36z"/>
			<path style="opacity:0.1;" d="M261.861,406.696v2.512c0,0.481,0.31,0.962,0.951,1.336l34.446,19.879
				c0.641,0.374,1.475,0.556,2.308,0.556v-46.063c-0.834,0-1.667,0.182-2.308,0.556l-34.446,19.889
				C262.171,405.734,261.861,406.215,261.861,406.696z"/>
			<path style="opacity:0.3;" d="M299.566,384.915v46.063c0.834,0,1.678-0.182,2.319-0.556l34.435-19.879
				c0.641-0.374,0.951-0.855,0.951-1.336v-2.512c0-0.481-0.31-0.962-0.951-1.336l-34.435-19.889
				C301.245,385.097,300.4,384.915,299.566,384.915z"/>
			<path style="fill:#27DEBF;" d="M301.881,427.919l34.444-19.886c1.278-0.738,1.278-1.934,0-2.672l-34.444-19.886
				c-1.278-0.738-3.35-0.738-4.628,0l-34.444,19.886c-1.278,0.738-1.278,1.934,0,2.672l34.444,19.886
				C298.531,428.657,300.603,428.657,301.881,427.919z"/>
			<path style="opacity:0.5;fill:#FFFFFF;" d="M301.881,427.919l34.444-19.886c1.278-0.738,1.278-1.934,0-2.672l-34.444-19.886
				c-1.278-0.738-3.35-0.738-4.628,0l-34.444,19.886c-1.278,0.738-1.278,1.934,0,2.672l34.444,19.886
				C298.531,428.657,300.603,428.657,301.881,427.919z"/>
			<path style="opacity:0.05;" d="M299.566,384.922c0.838,0,1.676,0.184,2.315,0.553l34.444,19.886c1.278,0.738,1.278,1.934,0,2.672
				l-34.444,19.886c-0.639,0.369-1.477,0.553-2.315,0.553V384.922z"/>
		</g>
		<path style="fill:#27DEBF;" d="M278.306,404.191h-0.008l15.241-45.78c0.003-0.008,0.005-0.017,0.008-0.025l0.014-0.043h0.008
			c0.237-0.65,0.784-1.27,1.657-1.774c2.398-1.384,6.285-1.384,8.682,0c0.874,0.504,1.42,1.124,1.657,1.774h0.009l0.017,0.05
			c0.001,0.004,0.003,0.008,0.004,0.012l15.241,45.787h-0.007c1.401,3.982-0.564,8.28-5.913,11.368
			c-8.477,4.894-22.221,4.894-30.698,0C278.869,412.471,276.904,408.172,278.306,404.191z"/>
		<g>
			<path style="fill:#FAFAFA;" d="M289.167,371.539l0.017-0.049l2.166-6.508c-0.36,1.107-0.04,2.27,0.947,3.275
				c0.363,0.37,0.81,0.72,1.356,1.035c3.266,1.886,8.561,1.886,11.828,0c0.546-0.315,0.992-0.665,1.356-1.035
				c0.991-1.008,1.31-2.176,0.944-3.286l2.172,6.526l0.012,0.035c0.359,1.089,0.194,2.222-0.478,3.272
				c-0.514,0.802-1.318,1.555-2.433,2.199c-0.789,0.455-1.689,0.796-2.63,1.078c-3.048,0.913-6.666,0.913-9.714,0
				c-0.94-0.282-1.841-0.622-2.63-1.078c-1.116-0.644-1.919-1.398-2.433-2.199C288.977,373.757,288.811,372.626,289.167,371.539z"/>
			<path style="fill:#FAFAFA;" d="M280.436,397.767l0.014-0.042l2.169-6.516c-0.358,1.08-0.387,2.187-0.122,3.274
				c0.277,1.138,0.879,2.253,1.838,3.291c0.783,0.849,1.79,1.647,3.029,2.362c6.74,3.891,17.668,3.891,24.408,0
				c1.239-0.715,2.246-1.513,3.029-2.362c0.958-1.038,1.561-2.154,1.838-3.291c0.264-1.085,0.236-2.189-0.12-3.267l2.163,6.498
				l0.021,0.064c0.356,1.08,0.433,2.185,0.238,3.276c-0.443,2.48-2.305,4.892-5.596,6.793c-7.609,4.393-19.944,4.393-27.553,0
				c-3.292-1.901-5.153-4.312-5.596-6.793C279.999,399.96,280.076,398.852,280.436,397.767z"/>
			<path style="fill:#FAFAFA;" d="M284.802,384.653l0.015-0.045l2.168-6.512c-0.357,1.084-0.281,2.203,0.206,3.273
				c0.546,1.199,1.615,2.335,3.22,3.283c0.034,0.02,0.063,0.042,0.098,0.062c5.003,2.889,13.115,2.889,18.117,0
				c0.035-0.02,0.064-0.042,0.098-0.063c1.606-0.948,2.675-2.083,3.22-3.283c0.487-1.071,0.563-2.191,0.205-3.275l2.168,6.511
				l0.016,0.05c0.358,1.086,0.358,2.204-0.006,3.289c-0.386,1.151-1.189,2.262-2.386,3.264c-0.511,0.427-1.084,0.837-1.743,1.217
				c-1.682,0.971-3.667,1.654-5.775,2.069c-3.146,0.619-6.567,0.619-9.713,0c-2.108-0.415-4.094-1.098-5.775-2.069
				c-0.659-0.38-1.232-0.79-1.743-1.217c-1.197-1.002-2-2.113-2.386-3.264C284.443,386.858,284.443,385.74,284.802,384.653z"/>
		</g>
		<path style="opacity:0.1;" d="M299.567,355.53c1.571,0,3.143,0.346,4.341,1.038c0.874,0.504,1.42,1.124,1.657,1.774h0.009
			l0.017,0.05c0.001,0.004,0.003,0.008,0.004,0.012l15.241,45.787h-0.007c1.401,3.982-0.564,8.28-5.913,11.368
			c-4.238,2.447-9.794,3.671-15.349,3.671c0.043-0.007,0.087-0.014,0.13-0.021c6.876-1.102,11.51-7.664,10.55-14.562l-6.339-45.573
			L299.567,355.53z"/>
		<path style="fill:#27DEBF;" d="M303.909,361.581c2.398-1.384,2.398-3.629,0-5.013c-2.398-1.384-6.285-1.384-8.682,0
			c-2.398,1.384-2.398,3.629,0,5.013C297.624,362.965,301.511,362.965,303.909,361.581z"/>
		<path style="opacity:0.5;fill:#FFFFFF;" d="M303.909,361.581c2.398-1.384,2.398-3.629,0-5.013c-2.398-1.384-6.285-1.384-8.682,0
			c-2.398,1.384-2.398,3.629,0,5.013C297.624,362.965,301.511,362.965,303.909,361.581z"/>
	</g>
</g>
<g id="Character">
	<g id="Character_5_">
		<g>
			<polygon id="XMLID_1030_" style="fill:#FFA8A7;" points="301.377,301.38 311.575,301.38 312.934,283.315 301.377,285.122 			"/>
			<g>
				<path id="XMLID_1029_" style="fill:#263238;" d="M323.97,320.367c0.341,0.32,0.238,2.509-0.138,3.099
					c-0.403,0.632-2.715,2.605-6.898,2.904c-3.996,0.286-7.565-0.253-9.911-1.743c-2.346-1.49-3.482-3.133-3.703-5.409
					c-0.221-2.277,0.033-4.473-1.053-6.225c-1.002-1.618-2.599-3.441-2.947-4.319c-0.756-1.909-0.027-4.637-0.027-4.637
					L323.97,320.367z"/>
				<path id="XMLID_1028_" style="fill:#27DEBF;" d="M313.031,300.492c0.028,0.885,0.184,1.691,0.461,2.534
					c0.579,1.766,1.46,3.427,2.448,5.008c0.509,0.814,1.046,1.613,1.666,2.351c1.209,1.438,2.71,2.619,3.99,3.999
					c1.28,1.38,2.367,3.053,2.467,4.906c0.17,3.134-3.232,4.199-5.851,4.666c-2.797,0.498-5.782,0.348-8.512-0.427
					c-3.037-0.863-5.229-3.216-5.733-6.246c-0.145-0.87-0.091-1.76-0.194-2.636c-0.235-1.998-1.269-3.823-2.438-5.484
					c-0.678-0.964-1.415-1.905-1.87-2.984c-0.817-1.941-0.162-4.123,0.36-6.056c0.451-1.669,0.962-3.558,1.55-3.401
					c0.007,0.865-0.003,0.955,0.618,1.542c0.785,0.742,0.819,1.858,1.649,2.514c-0.389-1.016-0.414-1.448-0.583-2.229
					c-0.05-0.234,0.013-0.708,0.177-0.887c0.22-0.24,0.595-0.39,0.962-0.514c1.233-0.417,2.511-0.707,3.806-0.866
					c1.183-0.146,2.541-0.29,3.714-0.027c0.361,0.081,0.712,0.253,0.934,0.54c0.234,0.302,0.277,0.57,0.333,1.071
					C313.044,298.366,313.005,299.66,313.031,300.492z"/>
				<path id="XMLID_1027_" style="opacity:0.4;" d="M313.031,300.492c0.028,0.885,0.184,1.691,0.461,2.534
					c0.579,1.766,1.46,3.427,2.448,5.008c0.509,0.814,1.046,1.613,1.666,2.351c1.209,1.438,2.71,2.619,3.99,3.999
					c1.28,1.38,2.367,3.053,2.467,4.906c0.17,3.134-3.232,4.199-5.851,4.666c-2.797,0.498-5.782,0.348-8.512-0.427
					c-3.037-0.863-5.229-3.216-5.733-6.246c-0.145-0.87-0.091-1.76-0.194-2.636c-0.235-1.998-1.269-3.823-2.438-5.484
					c-0.678-0.964-1.415-1.905-1.87-2.984c-0.817-1.941-0.162-4.123,0.36-6.056c0.451-1.669,0.962-3.558,1.55-3.401
					c0.007,0.865-0.003,0.955,0.618,1.542c0.785,0.742,0.819,1.858,1.649,2.514c-0.389-1.016-0.414-1.448-0.583-2.229
					c-0.05-0.234,0.013-0.708,0.177-0.887c0.22-0.24,0.595-0.39,0.962-0.514c1.233-0.417,2.511-0.707,3.806-0.866
					c1.183-0.146,2.541-0.29,3.714-0.027c0.361,0.081,0.712,0.253,0.934,0.54c0.234,0.302,0.277,0.57,0.333,1.071
					C313.044,298.366,313.005,299.66,313.031,300.492z"/>
				<path id="XMLID_1026_" style="fill:#F5F5F5;" d="M316.362,308.691c-1.167-0.874-3.782-0.886-5.212-0.733
					c-1.791,0.192-3.241,0.82-4.065,1.427c-0.365,0.269-0.875,0.222-1.197-0.095l0,0c-0.386-0.381-0.351-1.009,0.089-1.332
					c0.873-0.642,2.452-1.545,4.574-1.695c3.519-0.248,4.552,0.355,4.552,0.355S316.708,307.652,316.362,308.691z"/>
				<path id="XMLID_1025_" style="fill:#F5F5F5;" d="M319.047,311.903c-1.468-0.867-4.344-0.743-5.774-0.589
					c-1.791,0.192-3.13,0.896-3.953,1.503c-0.365,0.269-0.876,0.223-1.197-0.095l0,0c-0.387-0.381-0.351-1.009,0.088-1.332
					c0.873-0.642,2.551-1.68,4.673-1.829c3.519-0.248,4.436,0.471,4.436,0.471S318.804,310.607,319.047,311.903z"/>
				<path id="XMLID_1024_" style="fill:#F5F5F5;" d="M309.15,302.896c2.432-0.251,3.463,0.021,4.424,0.371
					c0.62,0.347,1.029,1.327,0.629,1.575c-0.783-0.435-2.194-0.615-3.922-0.538c-1.16,0.052-2.62,0.521-3.806,1.046
					c-0.301,0.133-0.657,0.321-0.969,0.494c-0.421,0.233-0.956,0.067-1.158-0.36l0,0c-0.171-0.362-0.044-0.795,0.305-1.006
					C305.504,303.963,307.185,303.099,309.15,302.896z"/>
			</g>
		</g>
		<g>
			<polygon id="XMLID_1023_" style="fill:#FFA8A7;" points="333.129,292.587 344.312,292.972 344.487,273.774 331.509,273.012 			
				"/>
			<g>
				<path id="XMLID_1018_" style="fill:#263238;" d="M366.233,306.019c0.329,0.687,0.233,1.974-0.156,2.79
					c-0.389,0.816-4.653,3.22-10.405,2.833c-5.751-0.388-9.701-2.705-11.893-4.157c-2.193-1.452-4.475-1.723-7.324-1.886
					c-2.848-0.163-6.587-1.583-7.212-2.915c-0.625-1.332,0.094-3.626,0.094-3.626L366.233,306.019z"/>
				<path id="XMLID_1017_" style="fill:#27DEBF;" d="M343.024,288.069c0.15-0.032,0.301-0.064,0.455-0.094
					c0.25-0.05,0.51-0.1,0.759-0.041c0.282,0.067,0.514,0.266,0.71,0.479c0.619,0.672,0.992,1.528,1.469,2.307
					c1.205,1.967,3.736,3.595,6.5,5.081c1.879,1.01,3.72,1.793,5.66,2.666c1.979,0.89,4.605,1.434,6.154,2.477
					c2.257,1.521,2.548,5.343-0.023,6.852c-2.218,1.302-8.055,2.713-14.176,0.979c-3.335-0.945-7.036-4.508-11.413-4.85
					c-2.784-0.218-8.047-1-9.839-3.113c-0.662-0.937,0.222-3.909,0.948-6.474c0.792-2.8,1.546-7.169,2.474-6.923
					c0.039,0.55,0.124,0.672,0.485,1.046c0.343,0.355,0.805,0.581,1.179,0.9c0.688,0.587,1.111,1.418,1.539,2.215
					c0.186,0.345,0.406,0.712,0.79,0.857c0.469,0.176,0.82-0.12,1.231-0.309c0.516-0.237,1.118-0.28,1.663-0.119
					c-0.053-0.554-0.152-1.104-0.293-1.643c-0.046-0.174-0.096-0.359-0.041-0.53c0.056-0.173,0.208-0.296,0.357-0.401
					C340.684,288.679,341.793,288.335,343.024,288.069z"/>
				<path id="XMLID_1014_" style="opacity:0.4;" d="M343.024,288.069c0.15-0.032,0.301-0.064,0.455-0.094
					c0.25-0.05,0.51-0.1,0.759-0.041c0.282,0.067,0.514,0.266,0.71,0.479c0.619,0.672,0.992,1.528,1.469,2.307
					c1.205,1.967,3.736,3.595,6.5,5.081c1.879,1.01,3.72,1.793,5.66,2.666c1.979,0.89,4.605,1.434,6.154,2.477
					c2.257,1.521,2.548,5.343-0.023,6.852c-2.218,1.302-8.055,2.713-14.176,0.979c-3.335-0.945-7.036-4.508-11.413-4.85
					c-2.784-0.218-8.047-1-9.839-3.113c-0.662-0.937,0.222-3.909,0.948-6.474c0.792-2.8,1.546-7.169,2.474-6.923
					c0.039,0.55,0.124,0.672,0.485,1.046c0.343,0.355,0.805,0.581,1.179,0.9c0.688,0.587,1.111,1.418,1.539,2.215
					c0.186,0.345,0.406,0.712,0.79,0.857c0.469,0.176,0.82-0.12,1.231-0.309c0.516-0.237,1.118-0.28,1.663-0.119
					c-0.053-0.554-0.152-1.104-0.293-1.643c-0.046-0.174-0.096-0.359-0.041-0.53c0.056-0.173,0.208-0.296,0.357-0.401
					C340.684,288.679,341.793,288.335,343.024,288.069z"/>
				<path id="XMLID_1011_" style="fill:#F5F5F5;" d="M350.317,294.287c0,0-0.4-1.068-2.055-1.376
					c-1.267-0.236-3.503,0.698-4.894,1.843c-0.569,0.469-0.495,1.359,0.15,1.716l0,0c0.384,0.212,0.855,0.157,1.186-0.131
					C345.615,295.545,347.659,294.104,350.317,294.287z"/>
				<path id="XMLID_1010_" style="fill:#F5F5F5;" d="M354.242,296.485c0,0-0.818-1.279-2.436-1.255c0,0-3.307,0.095-5.354,2.003
					c-0.522,0.487-0.486,1.315,0.14,1.659v0c0.372,0.204,0.826,0.15,1.142-0.133C348.657,297.936,350.505,296.206,354.242,296.485z"
					/>
				<path id="XMLID_1009_" style="fill:#F5F5F5;" d="M358.576,298.466c0,0-0.912-1.158-2.529-1.133c0,0-3.082,0.115-5.128,2.023
					c-0.522,0.487-0.486,1.315,0.14,1.659l0,0c0.372,0.204,0.826,0.15,1.142-0.132C353.123,300.059,354.839,298.187,358.576,298.466
					z"/>
			</g>
		</g>
		<g id="XMLID_1002_">
			<g id="XMLID_1003_">
				<path id="XMLID_1008_" style="fill:#37474F;" d="M302.084,151.325c-2.849,21.975-0.347,71.092-0.347,71.092
					c-0.233,2.745-0.911,10.276-2.081,22.358c-1.382,14.276,0.654,45.179,0.654,45.179s7.641,3.38,13.112,0.756
					c0,0,8.019-51.771,9.81-65.964c1.563-12.387,4.679-37.935,4.679-37.935l1.06,38.863c0,0-1.06,7.901-1.415,14.749
					c-0.434,8.377,3.743,42.112,3.743,42.112s8.533,1.749,13.938-0.439c0,0,3.974-47.915,4.728-57.972
					c1.01-13.467,3.01-52.044,2.232-72.349L302.084,151.325z"/>
				<path id="XMLID_1004_" style="opacity:0.6;fill:#263238;" d="M327.911,186.811l1.343-8.772c0,0,10.65-1.424,15.475-5.959
					c0,0-3.625,6.642-12.549,7.931l-1.393,7.565l-1.923,34.143L327.911,186.811z"/>
			</g>
		</g>
		<g>
			<path id="XMLID_1036_" style="fill:#FFA8A7;" d="M402.758,113.731c0,0-3.383,0.166-8.015,0.127
				c-4.632-0.039-15.662-0.78-19.978-2.15c-6.551-4.127-17.293-15.632-21.029-19.422c-4.31-4.372-7.37-5.544-15.088-5.33
				c-3.662,0.101-1.306,12.327,3.957,17.908c4.905,5.201,14.28,15.778,25,20.613c4.621,2.084,10.081,1.347,22.14,0.728
				c7.244-0.372,9.057-0.477,14.438-1.323C407.383,124.378,402.758,113.731,402.758,113.731z"/>
			<g id="XMLID_534_">
				<path style="fill:#27DEBF;" d="M309.749,61.532c-0.074,0.674,2.298,2.078,2.298,2.078l-0.663-4.08L309.749,61.532z"/>
				<path style="opacity:0.3;" d="M309.749,61.532c-0.074,0.674,2.298,2.078,2.298,2.078l-0.663-4.08L309.749,61.532z"/>
				<path id="XMLID_659_" style="fill:#27DEBF;" d="M306.149,89.133c-4.306,0.765-4.461,3.382-5.403,7.652
					c-0.468,2.121-1.512,6.677-1.097,10.496l3.205,25.246l-1.1,26.865c6.93,7.539,34.639,9.956,49.771-1.094
					c0,0-0.164-45.555-0.862-53.221c-1.22-13.393-7.294-18.154-16.205-18.122l-15.245,1.298L306.149,89.133z"/>
				<path id="XMLID_646_" style="opacity:0.7;fill:#FFFFFF;" d="M306.149,89.133c-4.306,0.765-4.461,3.382-5.403,7.652
					c-0.468,2.121-1.512,6.677-1.097,10.496l3.205,25.246l-1.1,26.865c6.93,7.539,34.639,9.956,49.771-1.094
					c0,0-0.164-45.555-0.862-53.221c-1.22-13.393-7.294-18.154-16.205-18.122l-15.245,1.298L306.149,89.133z"/>
				<g id="XMLID_535_">
					<path id="XMLID_563_" style="fill:#263238;" d="M322.387,55.762c0.026,7.473,6.105,13.511,13.579,13.485
						c7.474-0.026,13.512-6.105,13.486-13.579c-0.026-7.474-6.105-13.511-13.579-13.486
						C328.399,42.208,322.362,48.288,322.387,55.762z"/>
					<g id="XMLID_559_">
						<path style="fill:#263238;" d="M318.152,58.405l-2.89-7.757c0,0-2.363-0.397-4.198,1.492
							c-1.798,1.852-0.771,7.626,1.497,13.276c0,0,2.228,10.295,3.114,11.984c0.885,1.69,2.704,2.164,2.704,2.164L318.152,58.405z"
							/>
						<path id="XMLID_562_" style="fill:#FFA8A7;" d="M317.932,65.876c-0.827,0.498-2.013-1.089-3.039-2.155
							c-1.025-1.065-4.365-2.514-6.016,0.996c-1.683,3.578,1.497,8.286,4.125,9.101c4.529,1.404,5.198-1.5,5.198-1.5l0.402,16.317
							c0,0,2.987,7.238,11.013,8.297c8.025,1.06,6.35-5.548,3.705-8.779l-0.03-4.966c0,0,4.101,0.608,6.1,0.292
							c3.325-0.526,5.41-3.158,6.406-6.763c1.601-5.79,2.2-10.463,0.786-21.834c-1.55-12.464-16.054-12.544-23.868-7.587
							C314.898,52.253,317.932,65.876,317.932,65.876z"/>
						<path id="XMLID_561_" style="fill:#263238;" d="M318.017,66.972c-1.309-0.377-2.262-2.471-3.124-3.25
							c-1.433-1.295,0.369-13.073,0.369-13.073s-1.383-2.921,1.358-5.959c1.95-2.16,5.22-2.411,10.801-3.308
							c2.754-0.443,6.002-0.66,8.731-1.167c1.579-0.294,2.742-0.393,4.3,0.201c1.433,0.546,2.724,1.473,3.673,2.681
							c2.109,2.687,2.564,7.097-0.167,9.542c-1.485,1.329-3.523,1.905-5.515,1.977c-3.51,0.126-6.551-1.996-9.873-2.775
							c-0.698-0.164-1.497-0.243-2.072,0.185c-0.621,0.462-0.738,1.322-0.955,2.065c-0.458,1.567-1.593,2.922-3.055,3.648
							c-0.443,0.22-0.92,0.388-1.305,0.698c-0.689,0.553-0.498,1.156-0.497,1.913c0,0.971-0.058,1.946-0.086,2.916
							c-0.022,0.732-0.046,1.479-0.293,2.169c-0.247,0.69-0.757,1.326-1.46,1.533C318.555,67.054,318.279,67.047,318.017,66.972z"/>
						<path id="XMLID_560_" style="fill:#F28F8F;" d="M333.289,83.188c0,0-6.897-1.486-9.499-2.857
							c-1.741-0.918-3.131-3.276-3.555-4.301c0,0,0.34,2.78,1.9,4.76c1.907,2.421,11.16,4.374,11.16,4.374L333.289,83.188z"/>
					</g>
					<g id="XMLID_544_">
						<path id="XMLID_558_" style="fill:#263238;" d="M331.963,64.079c0.003,0.854-0.661,1.547-1.483,1.547
							c-0.822,0.001-1.491-0.691-1.494-1.546c-0.003-0.854,0.661-1.547,1.483-1.547C331.291,62.533,331.96,63.225,331.963,64.079z"
							/>
						<path id="XMLID_556_" style="fill:#263238;" d="M330.185,59.495l-3.297,2.138c-0.576-0.95-0.305-2.199,0.606-2.789
							C328.405,58.253,329.609,58.544,330.185,59.495z"/>
						<path id="XMLID_549_" style="fill:#263238;" d="M344.98,61.005l-3.134-1.9c0.496-0.892,1.6-1.19,2.465-0.665
							C345.177,58.964,345.476,60.112,344.98,61.005z"/>
						<path id="XMLID_547_" style="fill:#263238;" d="M343.751,63.5c0.003,0.854-0.661,1.547-1.483,1.547
							c-0.822,0-1.491-0.691-1.494-1.545c-0.003-0.854,0.661-1.547,1.483-1.547C343.079,61.954,343.748,62.646,343.751,63.5z"/>
						<polygon id="XMLID_545_" style="fill:#F28F8F;" points="335.579,62.095 337.232,72.556 342.081,70.466 						"/>
					</g>
				</g>
				<g>
					<path style="fill:#27DEBF;" d="M308.913,55.736c0,2.012,0.29,3.955,0.835,5.796c0.477-0.494,1.006-0.972,1.551-1.432
						c2.932-2.472,6.564-4.432,10.519-5.847h0.017c8.865-3.154,19.383-3.495,27.48-0.392c-0.153-1.705-0.528-3.358-1.091-4.91
						c-2.779-7.859-10.263-13.468-19.059-13.468C317.966,35.483,308.913,44.553,308.913,55.736z"/>
					<path style="fill:#27DEBF;" d="M319.534,36.523c1.057-0.392,6.279-1.425,6.697-1.509c2.708-0.548,6.928-0.091,10.93,3.896
						c5.182,5.165,5.745,11.626,5.745,11.626l-5.557,1.176h-1.739c-0.256-4.023-4.671-13.076-11.984-14.098
						c-0.341-0.051-0.682-0.085-1.04-0.085c-0.921-0.051-1.892,0.051-2.898,0.307c0,0-2.097,1.193-3.069,2.012
						C316.619,39.847,316.994,37.444,319.534,36.523z"/>
					<path style="opacity:0.45;fill:#FFFFFF;" d="M319.534,36.523c1.057-0.392,6.279-1.425,6.697-1.509
						c2.708-0.548,6.928-0.091,10.93,3.896c5.182,5.165,5.745,11.626,5.745,11.626l-5.557,1.176h-1.739
						c-0.256-4.023-4.671-13.076-11.984-14.098c-0.341-0.051-0.682-0.085-1.04-0.085c-0.921-0.051-1.892,0.051-2.898,0.307
						c0,0-2.097,1.193-3.069,2.012C316.619,39.847,316.994,37.444,319.534,36.523z"/>
					<path style="fill:#27DEBF;" d="M335.612,51.717c-0.309-4.684-6.3-16.289-15.919-13.887c0,0-2.111,1.196-3.08,2.011
						c0,0,0.386-2.392,2.922-3.319c2.535-0.927,7.443-1.037,12.072,3.575c5.18,5.161,5.736,11.621,5.736,11.621H335.612z"/>
					<path style="opacity:0.3;" d="M335.612,51.717c-0.309-4.684-6.3-16.289-15.919-13.887c0,0-2.111,1.196-3.08,2.011
						c0,0,0.386-2.392,2.922-3.319c2.535-0.927,7.443-1.037,12.072,3.575c5.18,5.161,5.736,11.621,5.736,11.621H335.612z"/>
					<path style="fill:#27DEBF;" d="M321.835,52.653c0.426-0.307,2.69-4.176,9.735-7.111c4.348-1.811,12.835-1.11,16.631-0.684
						c6.646,0.746,8.1,2.315,8.09,3.303c-0.003,0.234-0.013,1.321-0.005,1.568c0.007,0.248-0.077,0.46-0.2,0.617
						c-1.142,1.415-6.77,3.514-6.77,3.514c-8.098-3.103-18.616-2.762-27.48,0.392V52.653z"/>
					<path style="opacity:0.15;" d="M321.835,52.653c0.426-0.307,2.69-4.176,9.735-7.111c4.348-1.811,12.835-1.11,16.631-0.684
						c6.646,0.746,8.1,2.315,8.09,3.303c-0.003,0.234-0.013,1.321-0.005,1.568c0.007,0.248-0.077,0.46-0.2,0.617
						c-1.142,1.415-6.77,3.514-6.77,3.514c-8.098-3.103-18.616-2.762-27.48,0.392V52.653z"/>
					<path style="fill:#27DEBF;" d="M321.835,54.252c8.865-3.154,19.383-3.495,27.48-0.392c0,0,5.628-2.099,6.77-3.514
						c0.614-0.784,0.337-2.966-7.884-3.889c-3.796-0.426-12.283-1.128-16.631,0.684C324.526,50.077,322.262,53.946,321.835,54.252z"
						/>
					<path style="opacity:0.3;" d="M321.835,54.252c8.865-3.154,19.383-3.495,27.48-0.392c0,0,5.628-2.099,6.77-3.514
						c0.614-0.784,0.337-2.966-7.884-3.889c-3.796-0.426-12.283-1.128-16.631,0.684C324.526,50.077,322.262,53.946,321.835,54.252z"
						/>
				</g>
			</g>
			<path style="fill:#27DEBF;" d="M352.584,115.832c-0.445-9.968-1.197-18.771-4.908-23.449c-3.711-4.678-5.527-5.569-14.326-5.429
				l-0.011,0.576c1.023,0.092,1.774,0.618,2.344,1.473c1.614,2.423,4.896,7.923,6.768,15.035c2.55,9.688,2.99,29.1,3.121,40.754
				c0.131,11.654-0.249,22.914-0.249,22.914s5.988-1.26,7.813-4.209C353.94,145.562,353.017,125.53,352.584,115.832z
				 M323.433,99.432c-1.253-5.31-3.689-8.813-4.849-11.518l-13.28,1.148c-4.05,1.868-7.197,6.739-6.805,11.182l4.243,33.385
				c-0.509,9.552-2.623,21.724-3.189,30.161c4.797,6.506,24.64,7.262,24.64,7.262c0.327-2.189,2.049-13.288,1.345-40.051
				C325.143,115.942,325.032,106.203,323.433,99.432z"/>
			<path style="fill:#F28F8F;" d="M400.091,121.72c-1.175-3.076-0.987-6.681-0.987-6.681l0.213-0.117
				c3.279-0.151,5.973-0.506,7.241-1.065l1.321,0.644c1.54,2.232,2.529,8.89,0.849,9.367c-1.51,0.428-3.025,0.751-4.543,1.013
				C401.714,125.054,400.637,123.147,400.091,121.72z"/>
			<g>
				<path id="XMLID_1035_" style="fill:#FFA8A7;" d="M405.542,124.3c6.517-0.224,8.925-3.523,9.832-9.241
					c0.907-5.718,0.754-13.185,0.826-15.161c0.073-1.994-0.508-2.66-1.298-2.776c-0.297-0.044-1.555,0.279-1.695,2.392
					c-0.255,3.855-0.356,6.228-1.091,6.201c-0.731-0.027-0.615-2.885-0.557-6.781c0.039-2.623-0.044-4.838-1.509-4.838
					c-1.557,0-1.946,1.561-2.024,5.116c-0.077,3.555,0.021,6.178-0.934,6.249c-0.759,0.056-0.603-3.71-0.773-6.141
					c-0.172-2.45-0.166-3.88-1.684-3.849c-1.377,0.028-1.75,1.983-1.694,4.375c0.052,2.21,0.002,8.941-0.248,9.778
					c-0.421,1.409-1.877-2.05-2.942-3.469c-1.746-2.328-3.875-1.263-3.013,0.856c0.862,2.119,1.86,5.139,2.367,8.029
					C399.563,117.65,400.666,124.325,405.542,124.3z"/>
				<path id="XMLID_1034_" style="fill:#F28F8F;" d="M405.516,112.492c0,0,3.925,4.088,2.508,8.454c0,0,2.141-2.498,0.703-5.854
					C407.748,112.81,405.516,112.492,405.516,112.492z"/>
			</g>
		</g>
		<g>
			<g id="XMLID_533_">
				<path style="fill:#FFA8A7;" d="M242.041,152.091c-0.023-0.622,0.014-1.253,0.068-1.869c0.169-1.96,0.502-4.001,1.493-5.73
					c1.037-1.808,2.633-2.198,4.485-2.908c3.021-1.158,4.086-0.473,7.127-1.577c4.314-1.566,21.055-8.763,26.019-11.06
					c0,0,7.357-23.112,9.875-30.001c2.596-7.103,6.982-9.333,14.754-9.934c2.546,5.339,1.991,14.964-2.489,24.773
					c0,0-6.026,15.924-8.646,22.63c-1.9,4.862-3.938,5.62-15.406,8.676c-6.117,1.63-22.05,6.335-24.45,7.308
					c-0.47,0.19-2.048,1.672-2.528,2.04c-2.552,1.956-5.148,6.17-9.714,1.112C242.041,154.9,242.073,152.973,242.041,152.091z"/>
			</g>
			<g>
				<path style="fill:#E0E0E0;" d="M244.638,87.322c0.014-0.404,0.281-0.805,0.811-1.113c1.089-0.632,2.854-0.632,3.942,0
					c0.531,0.308,0.798,0.71,0.811,1.113h0.005v82.076c0,0.876-1.247,1.587-2.785,1.587c-1.538,0-2.785-0.71-2.785-1.587h-0.005
					V87.322H244.638z"/>
				<path style="fill:#37474F;" d="M202.436,122.197l87.475-50.504c0.661-0.382,1.197-1.311,1.197-2.074l0-28.366
					c0-0.764-0.536-1.692-1.198-2.074l-2.098-1.212c-0.661-0.382-1.734-0.382-2.395,0L197.942,88.47
					c-0.661,0.382-1.197,1.311-1.197,2.074l0,28.366c0,0.764,0.536,1.692,1.198,2.074l2.098,1.212
					C200.702,122.578,201.775,122.578,202.436,122.197z"/>
				<path style="fill:#263238;" d="M197.096,89.364c-0.217,0.375-0.351,0.799-0.351,1.18l0,28.366c0,0.764,0.536,1.692,1.198,2.074
					l2.098,1.212c0.661,0.382,1.734,0.382,2.395,0l25.763-14.875L197.096,89.364z"/>
				<path style="fill:#455A64;" d="M291.048,69.628l0-28.366c0-0.764-0.536-1.073-1.198-0.691l-87.475,50.503
					c-0.661,0.382-1.197,1.311-1.197,2.074l0.001,28.367c0,0.764,0.536,1.073,1.198,0.691l87.475-50.504
					C290.512,71.321,291.048,70.392,291.048,69.628z"/>
				<g>
					<g>
						<path style="fill:#27DEBF;" d="M227.817,92.306l0.85-7.398c0.027-0.221,0.079-0.394,0.159-0.522
							c0.08-0.128,0.163-0.217,0.253-0.268l1.739-1.004c0.079-0.046,0.147-0.041,0.205,0.014c0.057,0.056,0.086,0.145,0.086,0.267
							c0,0.041-0.005,0.098-0.013,0.171l-1.713,13.906c-0.018,0.201-0.089,0.419-0.213,0.654c-0.123,0.234-0.273,0.403-0.451,0.505
							l-1.102,0.636c-0.177,0.102-0.321,0.103-0.432,0.004c-0.11-0.099-0.188-0.232-0.231-0.398l-0.996-4.045l-0.996,5.194
							c-0.044,0.217-0.122,0.439-0.232,0.666c-0.11,0.227-0.254,0.392-0.431,0.494l-1.102,0.636
							c-0.177,0.102-0.327,0.107-0.451,0.015c-0.124-0.091-0.195-0.228-0.212-0.409l-1.713-11.928
							c-0.009-0.063-0.013-0.114-0.013-0.155c0-0.122,0.029-0.245,0.087-0.367c0.057-0.122,0.126-0.205,0.205-0.251l1.739-1.004
							c0.089-0.051,0.173-0.059,0.253-0.024c0.079,0.036,0.133,0.148,0.159,0.338l0.849,6.417l0.783-4.151
							c0.018-0.105,0.058-0.252,0.12-0.438c0.062-0.185,0.173-0.324,0.333-0.416l1.248-0.721c0.159-0.092,0.269-0.08,0.331,0.034
							c0.063,0.115,0.103,0.214,0.12,0.299L227.817,92.306z"/>
						<path style="fill:#27DEBF;" d="M237.429,79.298c0.177-0.102,0.312-0.106,0.405-0.009c0.093,0.097,0.157,0.21,0.192,0.338
							l2.894,11.205c0.036,0.116,0.053,0.208,0.053,0.276c0,0.122-0.029,0.245-0.086,0.367c-0.057,0.122-0.125,0.205-0.206,0.252
							l-1.671,0.965c-0.178,0.103-0.304,0.117-0.379,0.045c-0.075-0.072-0.122-0.158-0.139-0.257l-0.372-1.482l-3.53,2.039
							l-0.373,1.911c-0.018,0.119-0.064,0.258-0.139,0.418c-0.075,0.159-0.201,0.29-0.378,0.392l-1.672,0.966
							c-0.08,0.046-0.148,0.041-0.206-0.014c-0.057-0.056-0.086-0.145-0.086-0.267c0-0.068,0.018-0.181,0.054-0.338l2.893-14.547
							c0.036-0.17,0.099-0.356,0.193-0.561c0.092-0.204,0.227-0.356,0.405-0.459L237.429,79.298z M235.279,89.47l2.15-1.241
							l-1.075-4.284L235.279,89.47z"/>
						<path style="fill:#27DEBF;" d="M246.668,73.964c0.583-0.337,1.105-0.543,1.565-0.618c0.461-0.076,0.852-0.015,1.175,0.179
							c0.323,0.196,0.57,0.539,0.743,1.033c0.173,0.493,0.259,1.135,0.259,1.924c0,1.022-0.138,1.949-0.412,2.783
							c-0.274,0.832-0.663,1.571-1.169,2.217l1.646,3.914c0.026,0.066,0.04,0.134,0.04,0.202c0,0.122-0.028,0.244-0.086,0.366
							c-0.057,0.121-0.126,0.206-0.206,0.252l-1.804,1.042c-0.178,0.103-0.305,0.114-0.379,0.035
							c-0.075-0.08-0.135-0.167-0.178-0.265l-1.474-3.522l-1.222,0.705v4.373c0,0.15-0.036,0.3-0.106,0.45
							c-0.071,0.15-0.156,0.253-0.253,0.309l-1.739,1.004c-0.097,0.056-0.182,0.051-0.252-0.018
							c-0.071-0.068-0.107-0.177-0.107-0.327V76.8c0-0.15,0.036-0.3,0.107-0.451c0.07-0.15,0.154-0.252,0.252-0.308L246.668,73.964z
							 M245.168,81.022l1.501-0.866c0.372-0.214,0.678-0.501,0.923-0.859c0.243-0.359,0.364-0.824,0.364-1.397
							c0-0.572-0.121-0.897-0.364-0.974c-0.244-0.077-0.551-0.009-0.923,0.205l-1.501,0.866V81.022z"/>
						<path style="fill:#27DEBF;" d="M258.64,81.358c-0.15,0.087-0.272,0.096-0.364,0.027c-0.093-0.07-0.153-0.13-0.18-0.183
							l-3.039-5.235v6.907c0,0.15-0.036,0.3-0.106,0.45c-0.071,0.15-0.156,0.253-0.253,0.309l-1.739,1.004
							c-0.097,0.056-0.181,0.051-0.252-0.018c-0.071-0.068-0.107-0.177-0.107-0.327V71.09c0-0.15,0.036-0.3,0.107-0.451
							c0.07-0.15,0.154-0.252,0.252-0.308l1.381-0.797c0.151-0.087,0.272-0.096,0.365-0.027c0.093,0.069,0.152,0.13,0.179,0.183
							l3.04,5.234v-6.907c0-0.15,0.036-0.3,0.107-0.451c0.07-0.15,0.153-0.252,0.252-0.308l1.739-1.004
							c0.097-0.056,0.181-0.051,0.251,0.018c0.071,0.068,0.107,0.177,0.107,0.327v13.202c0,0.15-0.036,0.3-0.107,0.451
							c-0.069,0.15-0.153,0.252-0.251,0.308L258.64,81.358z"/>
						<path style="fill:#27DEBF;" d="M263.261,78.69c-0.097,0.056-0.181,0.051-0.252-0.018c-0.071-0.068-0.107-0.177-0.107-0.327
							V65.143c0-0.15,0.036-0.3,0.107-0.45c0.07-0.15,0.154-0.252,0.252-0.308L265,63.38c0.097-0.056,0.181-0.051,0.252,0.017
							c0.07,0.069,0.106,0.178,0.106,0.328v13.202c0,0.15-0.036,0.3-0.106,0.45c-0.07,0.15-0.154,0.253-0.252,0.309L263.261,78.69z"
							/>
						<path style="fill:#27DEBF;" d="M273.92,72.536c-0.15,0.087-0.272,0.096-0.365,0.027c-0.092-0.07-0.152-0.13-0.179-0.182
							l-3.04-5.235v6.907c0,0.15-0.035,0.3-0.105,0.45c-0.071,0.15-0.155,0.253-0.253,0.309l-1.739,1.004
							c-0.097,0.056-0.181,0.051-0.252-0.018c-0.071-0.068-0.107-0.177-0.107-0.327V62.269c0-0.15,0.036-0.3,0.107-0.45
							c0.07-0.15,0.154-0.252,0.252-0.309l1.381-0.797c0.15-0.087,0.272-0.096,0.365-0.027c0.093,0.069,0.152,0.13,0.179,0.182
							l3.04,5.235v-6.907c0-0.15,0.036-0.3,0.107-0.451c0.069-0.15,0.153-0.252,0.251-0.308l1.739-1.004
							c0.097-0.056,0.181-0.051,0.252,0.018c0.071,0.068,0.107,0.177,0.107,0.327V70.98c0,0.15-0.036,0.3-0.107,0.45
							c-0.07,0.15-0.154,0.252-0.252,0.309L273.92,72.536z"/>
						<path style="fill:#27DEBF;" d="M281.991,56.636c-0.3,0.173-0.553,0.384-0.756,0.63c-0.204,0.247-0.37,0.517-0.498,0.809
							c-0.128,0.293-0.224,0.599-0.285,0.921c-0.063,0.322-0.107,0.647-0.133,0.975c-0.018,0.187-0.029,0.439-0.033,0.755
							c-0.005,0.317-0.007,0.641-0.007,0.975c0,0.334,0.004,0.658,0.013,0.973c0.009,0.316,0.017,0.559,0.027,0.731
							c0.017,0.303,0.059,0.578,0.125,0.826c0.066,0.248,0.164,0.443,0.293,0.587c0.129,0.144,0.296,0.222,0.505,0.23
							c0.207,0.01,0.457-0.07,0.75-0.238c0.23-0.133,0.446-0.299,0.65-0.498c0.203-0.199,0.38-0.431,0.53-0.695
							c0.151-0.264,0.271-0.564,0.359-0.902c0.089-0.338,0.133-0.711,0.133-1.119l-1.115,0.644
							c-0.097,0.056-0.181,0.051-0.252-0.018c-0.071-0.068-0.107-0.177-0.107-0.327V59.73c0-0.15,0.036-0.299,0.107-0.451
							c0.07-0.148,0.155-0.252,0.252-0.308l3.213-1.855c0.097-0.056,0.182-0.05,0.252,0.017c0.07,0.07,0.106,0.178,0.106,0.328
							v2.617c0,0.872-0.106,1.716-0.318,2.533c-0.213,0.817-0.505,1.576-0.877,2.275c-0.371,0.697-0.807,1.321-1.306,1.868
							c-0.501,0.547-1.043,0.99-1.627,1.327c-0.637,0.368-1.207,0.55-1.706,0.545c-0.5-0.004-0.927-0.156-1.281-0.455
							c-0.353-0.3-0.625-0.732-0.817-1.297c-0.19-0.564-0.298-1.214-0.324-1.948c-0.018-0.548-0.028-1.142-0.028-1.783
							c0-0.639,0.01-1.258,0.028-1.854c0.017-0.76,0.123-1.533,0.318-2.319c0.194-0.787,0.467-1.533,0.817-2.24
							c0.349-0.705,0.777-1.35,1.281-1.935c0.503-0.584,1.075-1.059,1.712-1.427c0.619-0.358,1.176-0.54,1.672-0.548
							c0.496-0.007,0.916,0.105,1.261,0.335c0.346,0.231,0.616,0.544,0.81,0.943c0.194,0.399,0.3,0.825,0.319,1.277
							c0.009,0.118-0.018,0.239-0.08,0.364c-0.062,0.124-0.133,0.209-0.212,0.255l-1.766,1.019
							c-0.133,0.077-0.237,0.075-0.311-0.005c-0.076-0.078-0.149-0.159-0.219-0.24c-0.124-0.174-0.293-0.301-0.505-0.384
							C282.747,56.301,282.424,56.386,281.991,56.636z"/>
					</g>
					<g>
						<g id="XMLID_690_">
							<path style="fill:#27DEBF;" d="M212.156,92.256c0.074,0,0.154,0.07,0.221,0.211l5.567,11.631
								c0.14,0.293,0.026,0.661-0.255,0.823l-11.131,6.426c-0.085,0.049-0.158,0.072-0.216,0.072c-0.133,0-0.186-0.124-0.12-0.34
								l5.728-18.581C212.001,92.337,212.076,92.256,212.156,92.256 M212.156,91.37L212.156,91.37c-0.38,0-0.855,0.228-1.051,0.867
								l-5.728,18.581c-0.168,0.544,0.014,0.906,0.138,1.074c0.193,0.262,0.495,0.412,0.828,0.412c0.217,0,0.439-0.064,0.658-0.191
								l11.131-6.426c0.683-0.394,0.951-1.26,0.611-1.972l-5.567-11.631C212.867,91.44,212.36,91.37,212.156,91.37L212.156,91.37z"
								/>
						</g>
						<g id="XMLID_551_">
							<g>
								<path style="fill:#27DEBF;" d="M211.841,102.388l-0.133-2.62c-0.025-0.581-0.037-1.001-0.037-1.261
									c0-0.353,0.06-0.663,0.18-0.931c0.12-0.267,0.278-0.457,0.475-0.571c0.238-0.137,0.465-0.125,0.545,0.082
									c0.08,0.207,0.052,0.571,0.052,1.047c0,0.281-0.01,0.572-0.029,0.872l-0.178,2.889c-0.019,0.386-0.061,0.697-0.124,0.933
									c-0.063,0.237-0.168,0.397-0.315,0.482c-0.149,0.086-0.253,0.049-0.311-0.111
									C211.908,103.04,211.866,102.769,211.841,102.388z M212.301,105.95c-0.168,0.097-0.316,0.098-0.441,0.003
									c-0.126-0.095-0.189-0.294-0.189-0.596c0-0.264,0.06-0.523,0.18-0.777c0.12-0.254,0.267-0.432,0.441-0.532
									c0.174-0.101,0.323-0.094,0.446,0.02c0.123,0.114,0.184,0.303,0.184,0.567c0,0.298-0.062,0.568-0.186,0.81
									C212.612,105.685,212.467,105.854,212.301,105.95z"/>
							</g>
						</g>
					</g>
				</g>
			</g>
			<g>
				<path style="fill:#FFA8A7;" d="M256.457,139.542c-4.342,0.683-6.131-0.464-7.573,1.739c-1.091,1.667-2.376,3.106-3.69,4.591
					c-0.217,0.245-0.447,0.538-0.402,0.862c0.056,0.402,0.497,0.62,0.889,0.721c1.762,0.452,3.223-0.133,4.631-1.136
					c1.088-0.775,4.451-1.993,4.451-1.993L256.457,139.542z"/>
				<path style="fill:#FFA8A7;" d="M244.633,140.766c0,0.135-1.527,0.902-1.681,0.993c-0.835,0.492-1.706,0.863-2.417,1.545
					c-0.704,0.675-1.211,1.624-1.123,2.595c0.045,0.494,0.24,0.982,0.17,1.474c-0.13,0.919-1.152,1.647-0.96,2.555
					c0.131,0.617,0.785,0.999,0.981,1.598c0.329,1.006-0.755,2.042-0.509,3.071c0.126,0.529,0.573,0.908,0.922,1.326
					c0.455,0.543,0.771,1.196,1.266,1.702c0.815,0.833,2.326,0.93,3.438,0.907c1.464-0.03,3.256-0.412,4.214-1.632
					c0.421-0.536,0.577-1.345,0.177-1.897c-0.121-0.167-0.288-0.307-0.363-0.5c-0.121-0.316,0.047-0.671,0.262-0.934
					c0.215-0.262,0.486-0.488,0.623-0.798c0.247-0.558-0.006-1.196-0.202-1.774c-0.314-0.926,0.097-1.528,0.175-2.426
					c0.074-0.852-0.229-1.724-0.809-2.351c-0.365-0.394-0.852-0.65-1.257-0.999c-0.187-0.162-0.21-0.406-0.887-0.576
					c-0.172-0.043-2.008-0.891-2.019-1.208C244.633,143.437,244.633,140.766,244.633,140.766z"/>
				<path style="fill:#F28F8F;" d="M250.208,156.296v-9.902l0.715-0.482c0,0,2.531,1.94,4.777,1.81c0,0-2.493,0.62-4.267-0.02
					l-0.004,7.508c-0.388,0.349-0.782,0.716-1.188,1.066C250.23,156.282,250.22,156.29,250.208,156.296z"/>
				<path style="fill:#F28F8F;" d="M245.37,146.005c0,0-0.798,0.965,0.312,1.449c1.108,0.483,2.797-0.072,3.615-0.501
					c0.136,0.32,0.273,0.634,0.304,1.057c0,0-3.232,1.206-4.23-0.019C244.372,146.766,245.37,146.005,245.37,146.005z"/>
			</g>
		</g>
		<g>
			<path style="fill:#FAFAFA;" d="M325.54,153.914c-10.386-0.612-20.375-3.335-24.223-5.976c-0.194,1.565-0.391,3.122-0.582,4.653
				c3.295,2.753,13.698,5.733,24.588,6.406C325.406,157.468,325.479,155.77,325.54,153.914z"/>
			<path style="fill:#FAFAFA;" d="M301.932,142.788c3.577,2.62,13.419,5.368,23.73,6.021c0.025-1.58,0.039-3.256,0.042-5.031
				c-9.895-0.621-19.366-3.174-23.292-5.694C302.274,139.622,302.112,141.195,301.932,142.788z"/>
			<path style="fill:#FAFAFA;" d="M345.528,141.54c0.017,1.13,0.033,2.23,0.044,3.252c0.007,0.588,0.012,1.175,0.016,1.76
				c4.066-1.521,6.48-3.459,7.822-4.888c-0.022-1.676-0.049-3.333-0.083-4.946C351.963,138.145,349.547,140.047,345.528,141.54z"/>
			<path style="fill:#FAFAFA;" d="M353.435,151.682c0.015-1.713,0.022-3.422,0.017-5.114c-1.333,1.44-3.749,3.417-7.854,4.979
				c-0.006,1.785-0.02,3.502-0.04,5.11C349.669,155.099,352.094,153.124,353.435,151.682z"/>
		</g>
		<g id="XMLID_1050_">
			<path id="XMLID_1095_" style="fill:#455A64;" d="M350.006,81.621c0-1.65-1.158-3.656-2.587-4.481
				c-0.705-0.407-1.342-0.448-1.809-0.189l-0.002-0.003l-0.017,0.01c-0.001,0.001-0.002,0.001-0.003,0.002l-2.627,1.518l3.695,6.315
				l2.591-1.496c0.001,0,0.001-0.001,0.002-0.001l0.008-0.004l-0.001-0.001C349.719,83.017,350.006,82.441,350.006,81.621z"/>
			<path id="XMLID_1062_" style="fill:#37474F;" d="M344.831,78.633c1.429,0.825,2.588,2.831,2.588,4.481s-1.159,2.319-2.587,1.494
				c-1.429-0.825-2.587-2.831-2.587-4.481S343.402,77.808,344.831,78.633z"/>
			<path id="XMLID_1061_" style="fill:#37474F;" d="M339.656,75.646v0.857c0,0.352,0.247,0.78,0.552,0.955l4.623,2.669l0-1.494
				L339.656,75.646z"/>
			<polygon id="XMLID_1060_" style="fill:#455A64;" points="342.244,74.152 339.656,75.646 344.831,78.633 347.419,77.14 			"/>
			<g id="XMLID_1055_">
				<path id="XMLID_1059_" style="fill:#E0E0E0;" d="M349.466,76.025c0,0,0.161-0.449,0.402-1.122
					c0.252-0.668,0.588-1.56,0.923-2.451c0.336-0.891,0.656-1.79,0.956-2.436c0.077-0.161,0.148-0.308,0.21-0.438
					c0.069-0.127,0.107-0.249,0.187-0.326c0.156-0.157,0.414-0.169,0.414-0.169l0.17,0.078c0,0,0.159,0.204,0.142,0.425
					c-0.006,0.111-0.074,0.219-0.125,0.355c-0.058,0.132-0.124,0.282-0.196,0.445c-0.295,0.649-0.768,1.477-1.225,2.313
					c-0.457,0.836-0.914,1.671-1.257,2.298c-0.354,0.622-0.589,1.036-0.589,1.036L349.466,76.025z"/>
				<path id="XMLID_1058_" style="fill:#E0E0E0;" d="M351.673,78.1c0,0,0.413-0.238,1.033-0.595
					c0.625-0.346,1.458-0.808,2.291-1.269c0.833-0.461,1.659-0.938,2.306-1.237c0.163-0.073,0.312-0.139,0.444-0.198
					c0.135-0.052,0.243-0.12,0.354-0.127c0.221-0.018,0.425,0.14,0.425,0.14l0.079,0.169c0,0-0.011,0.258-0.167,0.415
					c-0.077,0.081-0.198,0.119-0.326,0.189c-0.13,0.063-0.277,0.135-0.437,0.212c-0.645,0.303-1.542,0.628-2.431,0.968
					c-0.889,0.34-1.779,0.681-2.446,0.936c-0.672,0.245-1.12,0.408-1.12,0.408L351.673,78.1z"/>
				<path id="XMLID_1057_" style="fill:#E0E0E0;" d="M351.818,81.397c0,0,0.472,0.065,1.181,0.164
					c0.706,0.11,1.647,0.256,2.588,0.402c0.941,0.146,1.886,0.276,2.58,0.437c0.173,0.043,0.332,0.081,0.472,0.116
					c0.139,0.042,0.266,0.054,0.358,0.117c0.186,0.121,0.25,0.371,0.25,0.371l-0.042,0.182c0,0-0.167,0.197-0.386,0.226
					c-0.11,0.016-0.23-0.028-0.373-0.05c-0.142-0.03-0.301-0.064-0.476-0.1c-0.695-0.156-1.603-0.449-2.514-0.726
					c-0.911-0.276-1.823-0.553-2.506-0.76c-0.681-0.219-1.135-0.365-1.135-0.365L351.818,81.397z"/>
				<path id="XMLID_1056_" style="fill:#E0E0E0;" d="M350.622,84.295c0,0,0.347,0.327,0.868,0.817
					c0.512,0.498,1.195,1.162,1.877,1.827c0.682,0.664,1.378,1.317,1.85,1.85c0.116,0.135,0.223,0.258,0.318,0.368
					c0.089,0.114,0.185,0.198,0.224,0.302c0.081,0.206-0.011,0.447-0.011,0.447l-0.14,0.125c0,0-0.25,0.064-0.446-0.04
					c-0.1-0.051-0.171-0.155-0.275-0.257c-0.098-0.106-0.209-0.226-0.33-0.357c-0.477-0.53-1.047-1.294-1.63-2.048
					c-0.583-0.753-1.166-1.506-1.603-2.071c-0.428-0.573-0.714-0.955-0.714-0.955L350.622,84.295z"/>
			</g>
			<g id="XMLID_1051_">
				<polygon id="XMLID_1054_" style="fill:#37474F;" points="346.172,76.788 344.409,77.806 345.291,78.315 347.054,77.297 				"/>
				<polygon id="XMLID_1053_" style="fill:#263238;" points="344.409,77.806 346.172,76.788 346.172,77.119 344.696,77.972 				"/>
				<polygon id="XMLID_1052_" points="346.172,77.12 346.767,77.463 347.054,77.297 346.172,76.788 				"/>
			</g>
		</g>
	</g>
</g>
<g id="Skull_1_">
	<g id="Skull">
		<g>
			<path style="fill:#455A64;" d="M166.495,135.657c-0.379-1.92-1.51-2.854-2.959-2.622c-1.294,0.207-2.211-0.925-2.445-2.822
				c-0.189-1.535-0.73-2.718-1.517-3.287c-0.438-0.316-7.566-4.303-8.39-4.852c-0.422-0.281-0.912-0.39-1.454-0.286
				c-2.667,0.508-5.373,4.617-5.981,9.123c-0.003,0.018-0.005,0.036-0.007,0.054c-0.452,3.463-1.885,6.949-3.92,9.085
				l-57.253,60.114c-2.869,3.013-5.947,4.446-8.7,4.194c-0.931-0.085-1.989,0.333-3.032,1.309c-2.688,2.518-4.322,7.634-3.64,11.335
				c0.358,1.941,1.473,2.91,2.916,2.715c1.288-0.173,2.189,0.989,2.403,2.903c0.181,1.616,0.746,2.857,1.578,3.42
				c0.409,0.277,7.489,4.242,8.322,4.805c0.409,0.276,0.883,0.389,1.407,0.302c2.657-0.44,5.388-4.499,6.037-9.014
				c0.003-0.021,0.006-0.041,0.008-0.062c0.555-3.997,2.221-7.995,4.564-10.456l54.686-57.419c3.638-3.82,7.495-5.617,11.094-5.79
				c0.859-0.042,1.804-0.49,2.733-1.383C165.625,144.449,167.218,139.318,166.495,135.657z"/>
			<path style="fill:#37474F;" d="M153.539,144.523l8.57-11.927c-0.522-0.477-0.884-1.299-1.018-2.382
				c-0.189-1.535-0.73-2.718-1.517-3.287c-0.438-0.316-7.566-4.303-8.39-4.852c-0.422-0.281-0.912-0.39-1.454-0.286
				c-2.667,0.508-5.373,4.617-5.981,9.123c-0.003,0.018-0.005,0.036-0.007,0.054c-0.307,2.353-1.076,4.706-2.17,6.649
				L153.539,144.523z"/>
			<path style="fill:#455A64;" d="M156.365,157.578c-0.523-0.296-1.134-0.391-1.812-0.243c-1.043,0.228-2.1,1.03-3.032,2.191
				c-2.753,3.431-5.83,5.551-8.7,5.851l-52.99,5.549c-0.294-1.2-0.824-2.057-1.501-2.54c-1.164-0.83-7.622-4.406-8.512-4.93
				c-1.145-0.673-2.658-0.351-4.158,1.095c-1.598,1.541-2.744,4.4-3.039,7.131c-0.234,2.167-1.151,4.358-2.445,5.645
				c-1.449,1.442-2.58,3.68-2.959,6.038c-0.528,3.284,0.179,5.925,1.642,6.909c0.54,0.363,6.505,3.716,8.347,4.822
				c0.548,0.329,1.169,0.481,1.88,0.343c0.929-0.18,1.874-0.822,2.733-1.773c3.599-3.982,7.456-6.639,11.094-7.02l50.931-5.333
				c0.002,0.013,0.004,0.026,0.007,0.039c0.274,1.588,0.917,2.667,1.769,3.188c1.169,0.714,7.478,4.298,8.338,4.814
				c1.167,0.701,2.721,0.359,4.25-1.154c1.592-1.574,2.716-4.448,2.986-7.17c0.214-2.161,1.115-4.363,2.403-5.677
				c1.443-1.472,2.558-3.728,2.916-6.082c0.512-3.367-0.279-6.026-1.841-6.897C164.152,162.084,157.918,158.456,156.365,157.578z"/>
			<path style="fill:#37474F;" d="M87.731,185.202l-16.387-9.462c-0.34,0.607-0.73,1.152-1.167,1.587
				c-1.449,1.442-2.58,3.68-2.959,6.038c-0.528,3.284,0.179,5.925,1.642,6.909c0.54,0.363,6.505,3.716,8.348,4.821
				c0.548,0.329,1.169,0.481,1.88,0.343c0.929-0.18,1.874-0.822,2.733-1.773c1.629-1.802,3.311-3.314,5.001-4.485L87.731,185.202z"
				/>
			<path style="fill:#37474F;" d="M147.032,163.736c-1.412,0.924-2.836,1.496-4.211,1.641l-4.92,0.515l-6.107,6.315l27.738-1.419
				L147.032,163.736z"/>
			<path style="fill:#37474F;" d="M142.245,181.481l1.599-0.167c0.002,0.013,0.004,0.026,0.007,0.039
				c0.274,1.588,0.917,2.667,1.77,3.188c1.169,0.714,7.478,4.298,8.338,4.814c1.167,0.701,2.721,0.359,4.25-1.154
				c0.31-0.307,0.596-0.675,0.868-1.07l0.456-7.481l-17.712-2.598C141.82,177.415,142.011,179.299,142.245,181.481z"/>
			<path style="fill:#37474F;" d="M89.832,170.926c-0.294-1.2-11.455,24.651-10.745,24.513c0.929-0.18,1.874-0.822,2.733-1.773
				c3.599-3.982,7.456-6.639,11.094-7.02l2.809-0.294l-13.153,13.811c-1.034,1.086-2.095,1.966-3.158,2.637l8.761,4.515
				c0.219,5.623-8.76,17.362-8.76,17.362l-7.964-4.571c0.563,0.48,0.942,1.36,1.071,2.514c0.181,1.616,0.746,2.857,1.578,3.42
				c0.409,0.277,7.489,4.242,8.321,4.805c0.409,0.276,0.883,0.389,1.407,0.302c2.657-0.44,5.388-4.499,6.037-9.014
				c0.003-0.021,0.006-0.041,0.008-0.062c0.377-2.712,1.265-5.425,2.529-7.658c0.599-1.057,1.282-2.007,2.035-2.798l26.582-27.911
				v-10.513l-8.32-4.66l-0.001,0l0,0L89.832,170.926z"/>
			<path style="fill:#27DEBF;" d="M79.159,210.472c1.042-0.976,2.1-1.395,3.031-1.309c2.753,0.252,5.83-1.181,8.7-4.194
				l57.253-60.115c2.035-2.136,3.467-5.622,3.92-9.085c0.002-0.018,0.005-0.036,0.007-0.054c0.608-4.506,3.314-8.615,5.981-9.123
				c1.598-0.304,2.744,1.232,3.039,3.621c0.234,1.897,1.151,3.029,2.445,2.822c1.449-0.232,2.58,0.702,2.959,2.622
				c0.723,3.661-0.87,8.792-3.548,11.366c-0.929,0.893-1.874,1.341-2.733,1.383c-3.599,0.174-7.456,1.971-11.094,5.79
				l-54.686,57.419c-2.344,2.461-4.009,6.459-4.564,10.456c-0.003,0.021-0.006,0.041-0.009,0.062
				c-0.649,4.515-3.38,8.574-6.036,9.014c-1.592,0.264-2.716-1.311-2.986-3.722c-0.214-1.914-1.115-3.076-2.403-2.903
				c-1.443,0.194-2.558-0.775-2.916-2.715C74.836,218.106,76.47,212.989,79.159,210.472z"/>
		</g>
		<g>
			<path style="fill:#455A64;" d="M99.514,110.24c-4.097,1.674-7.848,5.739-9.156,10.254c-1.308,4.514-0.914,12.561,3.857,12.932
				c3.308,0.257,10.532-5.665,12.799-12.881C109.281,113.328,105.88,107.639,99.514,110.24z"/>
			<path style="fill:#455A64;" d="M125.876,95.02c4.097-3.057,7.848-3.323,9.156-0.319c1.308,3.004,0.914,11.505-3.857,17.385
				c-3.308,4.077-10.532,6.496-12.799,1.898C116.109,109.386,119.51,99.769,125.876,95.02z"/>
			<path style="fill:#455A64;" d="M112.695,134.87c0.991,3.686,3.662,3.419,5.024,1.518c1.362-1.901,1.062-3.922-0.15-6.735
				c-1.212-2.813-4.875-6.907-4.875-6.907s-3.663,8.324-4.875,12.536c-1.212,4.212-1.512,6.58-0.15,6.908
				C109.033,142.519,111.704,139.7,112.695,134.87z"/>
		</g>
		<path style="fill:#455A64;" d="M148.762,101.155c0-5.509,3.231-9.643,3.231-25.846c0-8.318-2.71-15.257-8.147-18.427
			c-1.378-0.803-6.999-4.062-8.458-4.89c-5.148-2.922-12.704-2.497-22.693,3.27c-20.712,11.958-30.976,34.807-30.976,51.01
			s3.231,16.607,3.231,22.116c0,5.509-5.891,12.151-3.231,18.393c0.537,1.259,1.166,1.998,1.851,2.383
			c1.758,0.987,7.632,4.415,8.315,4.8c1.138,0.643,2.431,0.307,3.718-0.243c0.126,1.318,0.179,2.872,0.179,4.709
			c0,0,8.513,5.007,8.924,5.267c1.594,1.011,6.489,2.896,16.311-2.774c12.352-7.132,16.913-17.218,16.913-17.218
			c0-7.13,0.781-10.963,3.631-15.201c2.851-4.238,7.771-3.373,10.432-12.687C154.653,106.504,148.762,106.664,148.762,101.155z"/>
		<path style="fill:#37474F;" d="M95.602,153.721c0.126,1.318,0.179,2.872,0.179,4.709c0,0,8.513,5.007,8.924,5.267
			c0.663,0.42,1.907,0.985,3.829,1.102l0-10.825l-8.322-4.804L95.602,153.721z"/>
		<path style="fill:#27DEBF;" d="M121.017,160.923c12.353-7.132,16.913-17.218,16.913-17.218c0-7.13,0.781-10.963,3.631-15.201
			c2.851-4.238,7.771-3.373,10.432-12.687c2.661-9.314-3.231-9.153-3.231-14.662s3.231-9.643,3.231-25.846
			s-10.264-27.2-30.976-15.242c-20.712,11.958-30.976,34.807-30.976,51.01c0,16.203,3.231,16.607,3.231,22.116
			c0,5.509-5.891,12.151-3.231,18.393c2.66,6.242,7.581-0.305,10.432,0.641c2.851,0.947,3.631,3.878,3.631,11.008
			C104.103,163.235,108.664,168.055,121.017,160.923z"/>
		<path style="fill:#37474F;" d="M107.835,115.045c-4.097,1.674-7.848,5.74-9.156,10.254c-1.308,4.514-0.914,12.561,3.857,12.932
			c3.309,0.257,10.532-5.665,12.799-12.881C117.602,118.133,114.201,112.443,107.835,115.045z"/>
		<path style="fill:#37474F;" d="M134.198,99.824c4.097-3.057,7.848-3.323,9.156-0.319c1.308,3.004,0.914,11.505-3.857,17.385
			c-3.308,4.077-10.532,6.496-12.799,1.898C124.431,114.19,127.832,104.574,134.198,99.824z"/>
		<path style="fill:#37474F;" d="M121.017,139.675c0.991,3.686,3.662,3.419,5.024,1.518c1.362-1.901,1.062-3.922-0.15-6.735
			c-1.212-2.813-4.875-6.907-4.875-6.907s-3.663,8.324-4.875,12.536s-1.512,6.58-0.15,6.908
			C117.354,147.323,120.026,144.504,121.017,139.675z"/>
		<path style="fill:#27DEBF;" d="M162.874,162.139c-1.042,0.228-2.1,1.03-3.031,2.191c-2.753,3.431-5.83,5.551-8.7,5.851
			l-57.253,5.996c-2.035,0.213-3.467-1.618-3.92-4.559c-0.002-0.015-0.005-0.03-0.007-0.046c-0.608-3.804-3.314-4.788-5.981-2.216
			c-1.598,1.541-2.744,4.4-3.039,7.131c-0.234,2.167-1.151,4.358-2.445,5.645c-1.449,1.442-2.58,3.681-2.959,6.039
			c-0.723,4.496,0.87,7.788,3.548,7.269c0.929-0.18,1.874-0.822,2.733-1.773c3.599-3.982,7.456-6.639,11.094-7.02l54.686-5.727
			c2.344-0.245,4.009,1.83,4.564,5.185c0.003,0.017,0.006,0.034,0.009,0.051c0.649,3.766,3.38,4.672,6.036,2.044
			c1.592-1.574,2.716-4.448,2.986-7.17c0.214-2.161,1.115-4.363,2.403-5.677c1.443-1.472,2.558-3.728,2.916-6.082
			C167.197,164.782,165.562,161.552,162.874,162.139z"/>
	</g>
</g>
</svg>
